<svg xmlns="http://www.w3.org/2000/svg" width="140" height="140" viewBox="0 0 140 140"><defs><style>.a{fill:#b0cad1;}.b,.d{fill:none;}.b{stroke:#b0cad1;stroke-dasharray:4 2;}.c{stroke:none;}</style></defs><path class="a" d="M541.94,326.332l-1.492-9.044a6.809,6.809,0,0,0-4.912-5.213L524.479,309.6a23.864,23.864,0,0,0,3.694-6.607,5.273,5.273,0,0,0,3.288-3.468c.554-2.21-.029-4.187-1.4-5.046V292.91c1.249-3.776,1.9-9.941-3.773-13.264-2.543-1.487-4.651-1.584-6.244-1.062-.247-.646.492-1.585.492-1.585a2.6,2.6,0,0,0-2.281,1.048,10.921,10.921,0,0,0-6.956-.536c-9.385,1.975-10.583,14.3-8.867,16.993-1.339.867-1.911,2.822-1.362,5.01a5.276,5.276,0,0,0,3.306,3.476,23.706,23.706,0,0,0,3.586,6.512l-3.717.737h0l-1.452.29a7.372,7.372,0,1,0-11.072,9.342l-1.109,5.83a3.9,3.9,0,0,0,3.879,4.763l43.448.538h.057a3.906,3.906,0,0,0,3.946-4.67Zm-26.542-9.9-1.325,5.268-8.5-9.919,3.788-.75a10.414,10.414,0,0,0,5.4,2.91l-1.035.925Zm3.012,5.343-1.2-5.322,1.713-1.527-1.068-1a10.41,10.41,0,0,0,5.231-2.827l3.9.875Zm-12.532-20.543a3.158,3.158,0,0,1-2.871-2.192c-.355-1.425-.02-2.757.756-2.975a.949.949,0,0,1,.7.11v-2.127c.005-.007.01-.01.016-.017-.006-.029-.011-.072-.016-.108v-.712c.184-1.8,1.876-5.247,11.266-2.162,3.226,1.062,5.219-.62,6.223-2.845,3.183.355,5.3,3.977,6.121,6.211v1.763a1.2,1.2,0,0,1,.352-.128c0,.015,0,.045-.007.055.026.029.073.01.135-.051a.78.78,0,0,1,.224.01c.773.218,1.111,1.549.756,2.975a3.185,3.185,0,0,1-2.852,2.192,22.069,22.069,0,0,1-4.42,7.868c-.243.258-.488.508-.747.74a10.921,10.921,0,0,1-.876.711,7.332,7.332,0,0,1-4.369,1.542,7.419,7.419,0,0,1-4.433-1.553,10.636,10.636,0,0,1-.883-.726c-.258-.239-.508-.49-.754-.754A21.869,21.869,0,0,1,505.878,301.228Zm-9.479,7.306a5.607,5.607,0,0,1,4.556,2.355,6.128,6.128,0,0,1,.477.809,5.927,5.927,0,0,1,.327.838,5.551,5.551,0,0,1,.268,1.636,5.642,5.642,0,0,1-5.629,5.642,5.522,5.522,0,0,1-2.722-.737,5.017,5.017,0,0,1-.8-.539,5.838,5.838,0,0,1-.759-.74,5.61,5.61,0,0,1,4.277-9.264Zm41.566,20.689-8.481-.1.053-4.658a.886.886,0,0,0-.871-.9.92.92,0,0,0-.9.875l-.054,4.658-22.94-.285.053-4.658a.881.881,0,0,0-.871-.9h-.012a.884.884,0,0,0-.883.873l-.053,4.66-8.494-.107a2.133,2.133,0,0,1-2.163-2.659l.979-5.132a7.317,7.317,0,0,0,3.067.688,7.411,7.411,0,0,0,7.4-7.412,7.212,7.212,0,0,0-.3-1.976l.093-.023,11.992,13.993a.88.88,0,0,0,.664.308h.005a.875.875,0,0,0,.662-.3l12.044-13.759,6.2,1.388a5.078,5.078,0,0,1,3.557,3.778l1.494,9.039a2.27,2.27,0,0,1-.455,1.859,2.238,2.238,0,0,1-1.739.747v.882ZM492,315.056v-1.77h3.517v-3.522h1.767v3.526h3.52v1.77h-3.516v3.524h-1.767v-3.524h-2.586l-.934,0Z" transform="translate(-445 -234)"/><g class="b"><circle class="c" cx="70" cy="70" r="70"/><circle class="d" cx="70" cy="70" r="69.5"/></g></svg>