<svg xmlns="http://www.w3.org/2000/svg" width="24.398" height="21.89" viewBox="0 0 24.398 21.89"><defs><style>.a{fill:#ff6a00;}</style></defs><g transform="translate(0 -26.315)"><g transform="translate(0 26.315)"><path class="a" d="M24.009,43.9,14.683,27.749a2.869,2.869,0,0,0-4.969,0L.389,43.9a2.869,2.869,0,0,0,2.485,4.3H21.524a2.869,2.869,0,0,0,2.485-4.3Zm-1.238,2.154a1.425,1.425,0,0,1-1.247.72H2.873a1.439,1.439,0,0,1-1.247-2.159l9.326-16.152a1.439,1.439,0,0,1,2.493,0l9.326,16.152A1.425,1.425,0,0,1,22.771,46.056Z" transform="translate(0 -26.315)"/></g><g transform="translate(11.484 33.448)"><rect class="a" width="1.429" height="7.147"/></g><g transform="translate(11.246 42.025)"><path class="a" d="M236.955,355.99a.953.953,0,1,0,.953.953A.954.954,0,0,0,236.955,355.99Z" transform="translate(-236.002 -355.99)"/></g></g></svg>