<svg xmlns="http://www.w3.org/2000/svg" width="37" height="37" viewBox="0 0 37 37"><defs><style>.a{fill:#ff4343;}.b{fill:#fff;}</style></defs><rect class="a" width="37" height="37" rx="5"/><g transform="translate(11.1 9.867)"><path class="b" d="M14.225,7.929H8.5a1.952,1.952,0,0,1-1.387-.581,1.992,1.992,0,0,1-.575-1.4V.165A.166.166,0,0,0,6.493.048.163.163,0,0,0,6.377,0H2.616A2.6,2.6,0,0,0,.766.774,2.657,2.657,0,0,0,0,2.643V15.857a2.657,2.657,0,0,0,.766,1.869,2.6,2.6,0,0,0,1.85.774h9.157a2.6,2.6,0,0,0,1.85-.774,2.657,2.657,0,0,0,.766-1.869V8.094a.166.166,0,0,0-.048-.117A.163.163,0,0,0,14.225,7.929Z"/><path class="b" d="M6.018,5.963.139.024A.081.081,0,0,0,.014.037.083.083,0,0,0,0,.082v5.36a.664.664,0,0,0,.192.467A.651.651,0,0,0,.654,6.1H5.96a.081.081,0,0,0,.045-.014.082.082,0,0,0,.03-.037.083.083,0,0,0-.018-.09Z" transform="translate(7.848 0.504)"/></g></svg>