<svg xmlns="http://www.w3.org/2000/svg" width="37" height="37" viewBox="0 0 37 37"><defs><style>.a{fill:#19e9aa;}.b{fill:#fff;}</style></defs><rect class="a" width="37" height="37" rx="5"/><g transform="translate(11.006 9.877)"><path class="b" d="M.5,3.645H3.737A1.553,1.553,0,0,0,3.5,3.351L.3.235A1.968,1.968,0,0,0,0,0V3.135A.5.5,0,0,0,.5,3.645Z" transform="translate(11.393 0.274)"/><path class="b" d="M.365.078C.345.039.3,0,.184,0S.043.039.043.059a2.462,2.462,0,0,0,.3,1.528C.526.764.505.274.365.078Z" transform="translate(6.828 6.858)"/><path class="b" d="M11.9,5.232a1.821,1.821,0,0,1-1.849-1.8V0H1.788A1.784,1.784,0,0,0,.522.509,1.7,1.7,0,0,0,0,1.744V16.852A1.77,1.77,0,0,0,1.788,18.6H13.623a1.77,1.77,0,0,0,1.788-1.744V5.232Zm.06,7.231a1.513,1.513,0,0,1-1.045.431,3.425,3.425,0,0,1-1.969-.9c-.4.078-.844.2-1.366.333-.442.118-.824.255-1.165.372-.6,1.058-1.386,2.136-2.13,2.312a1.032,1.032,0,0,1-.241.039.8.8,0,0,1-.543-.2.839.839,0,0,1-.321-.823c.161-.8,1.487-1.489,2.693-1.96.161-.294.3-.607.442-.921.241-.588.442-1.117.583-1.568-.563-1.019-1.025-2.273-.7-2.959a.911.911,0,0,1,.864-.529.927.927,0,0,1,.824.412c.362.509.3,1.509-.141,3a5.466,5.466,0,0,0,.623.862,10.026,10.026,0,0,0,.824.784c1.607-.274,2.672-.157,2.994.353A.82.82,0,0,1,11.956,12.463Z"/><path class="b" d="M.5,0C.382.314.261.647.121,1c-.04.1-.08.176-.121.274.181-.059.321-.1.462-.137.3-.078.6-.157.864-.235A5.276,5.276,0,0,1,.864.431,5.321,5.321,0,0,1,.5,0Z" transform="translate(6.892 10.444)"/><path class="b" d="M0,.96c.06.1.08.1.141.1A2.656,2.656,0,0,0,1.226,0C.422.392.04.764,0,.96Z" transform="translate(3.918 13.227)"/><path class="b" d="M0,.048A1.93,1.93,0,0,0,.9.361a.47.47,0,0,0,.482-.2C1.487.009.964-.05,0,.048Z" transform="translate(10.026 11.749)"/></g></svg>