<svg xmlns="http://www.w3.org/2000/svg" width="26.483" height="32" viewBox="0 0 26.483 32"><defs><style>.a{fill:#ff6a00;}</style></defs><g transform="translate(-39.995)"><g transform="translate(39.995)"><path class="a" d="M66.362,27.8l-3.357-4.316a4.859,4.859,0,0,0,2.656-1.966c.791-1.367.433-3.034.087-4.646a12.688,12.688,0,0,1-.374-2.527,12.685,12.685,0,0,1,.374-2.529c.344-1.612.7-3.279-.087-4.643-.819-1.415-2.467-1.938-4.062-2.444a11.816,11.816,0,0,1-2.294-.9,11.209,11.209,0,0,1-1.838-1.49C56.285,1.243,54.944,0,53.237,0s-3.048,1.243-4.232,2.34a11.211,11.211,0,0,1-1.837,1.49,11.813,11.813,0,0,1-2.293.9c-1.594.505-3.243,1.029-4.062,2.444-.791,1.367-.433,3.034-.087,4.646a12.684,12.684,0,0,1,.373,2.529,12.685,12.685,0,0,1-.374,2.529c-.344,1.612-.7,3.279.087,4.643a4.86,4.86,0,0,0,2.659,1.966L40.111,27.8a.552.552,0,0,0,.5.886l3.945-.493.974,3.407a.552.552,0,0,0,.425.39.563.563,0,0,0,.1.01.552.552,0,0,0,.436-.213l3.523-4.532a5.1,5.1,0,0,0,3.213,1.434,5.1,5.1,0,0,0,3.213-1.434l3.523,4.53a.552.552,0,0,0,.436.215.563.563,0,0,0,.1-.01.552.552,0,0,0,.425-.39l.974-3.407,3.945.493a.552.552,0,0,0,.5-.886ZM46.3,30.252l-.8-2.817a.552.552,0,0,0-.6-.4l-3.09.386,2.769-3.56.305.1a11.812,11.812,0,0,1,2.291.9,11.208,11.208,0,0,1,1.838,1.49l.19.175Zm6.941-2.665c-1.274,0-2.346-.993-3.482-2.046A12.162,12.162,0,0,0,47.72,23.9a12.793,12.793,0,0,0-2.512-.993c-1.458-.463-2.836-.9-3.441-1.945-.577-1-.279-2.389.037-3.862a13.511,13.511,0,0,0,.4-2.759,13.505,13.505,0,0,0-.4-2.759c-.316-1.473-.614-2.863-.037-3.862.607-1.045,1.982-1.482,3.441-1.945a12.8,12.8,0,0,0,2.511-.993,12.161,12.161,0,0,0,2.035-1.637C50.89,2.1,51.962,1.1,53.237,1.1s2.346.993,3.482,2.046a12.162,12.162,0,0,0,2.035,1.637,12.792,12.792,0,0,0,2.512.993c1.458.463,2.836.9,3.441,1.945.577,1,.279,2.389-.037,3.862a13.511,13.511,0,0,0-.4,2.759,13.506,13.506,0,0,0,.4,2.759c.316,1.473.614,2.863.037,3.862-.607,1.045-1.982,1.482-3.441,1.945a12.8,12.8,0,0,0-2.511.993,12.161,12.161,0,0,0-2.035,1.637C55.583,26.593,54.511,27.586,53.237,27.586Zm8.347-.547a.552.552,0,0,0-.6.4l-.808,2.817-2.9-3.727.19-.175a11.211,11.211,0,0,1,1.837-1.49,11.813,11.813,0,0,1,2.293-.9l.305-.1,2.77,3.56Z" transform="translate(-39.995)"/></g><g transform="translate(43.306 4.414)"><g transform="translate(0)"><path class="a" d="M97.931,64a9.931,9.931,0,1,0,9.931,9.931A9.931,9.931,0,0,0,97.931,64Zm0,18.759a8.828,8.828,0,1,1,8.828-8.828A8.828,8.828,0,0,1,97.931,82.759Z" transform="translate(-88 -64)"/></g></g><g transform="translate(46.659 7.612)"><path class="a" d="M149.56,114.8a1.1,1.1,0,0,0-.892-.454h-3.378l-1.048-3.215a1.1,1.1,0,0,0-2.1,0L141.1,114.35h-3.38a1.1,1.1,0,0,0-.65,2l2.734,1.986-1.044,3.215a1.1,1.1,0,0,0,1.7,1.234l2.736-1.986,2.735,1.986a1.1,1.1,0,0,0,1.7-1.234l-1.044-3.215,2.734-1.986A1.1,1.1,0,0,0,149.56,114.8Zm-3.95,2.871a.552.552,0,0,0-.2.617l1.169,3.6-3.059-2.222a.552.552,0,0,0-.648,0l-3.059,2.222,1.168-3.6a.552.552,0,0,0-.2-.617l-3.059-2.222H141.5a.552.552,0,0,0,.525-.381l1.169-3.6,1.169,3.6a.552.552,0,0,0,.525.381h3.781Z" transform="translate(-136.616 -110.376)"/></g></g></svg>