<svg xmlns="http://www.w3.org/2000/svg" width="81.74" height="81.74" viewBox="0 0 81.74 81.74"><defs><style>.a{fill:rgba(254,100,111,0.1);}.b,.c{fill:#fe646f;}.c{opacity:0.5;}</style></defs><path class="a" d="M15.326,81.74H66.414A15.325,15.325,0,0,0,81.74,66.414V15.326A15.325,15.325,0,0,0,66.414,0H15.326A15.325,15.325,0,0,0,0,15.326V66.414A15.325,15.325,0,0,0,15.326,81.74Z"/><path class="b" d="M40.652,23.326V44.188A4.68,4.68,0,0,1,35.97,48.87H14.685A4.681,4.681,0,0,1,10,44.188V23.326ZM30.435,40.356a1.7,1.7,0,0,0,3.408,0V30.139a1.7,1.7,0,1,0-3.408,0Zm-6.813,0a1.7,1.7,0,0,0,3.408,0V30.139a1.7,1.7,0,1,0-3.408,0Zm-6.81,0a1.7,1.7,0,0,0,3.408,0V30.139a1.705,1.705,0,0,0-3.41,0V40.356ZM30.435,11.4H20.218v1.7h-3.4V11.4a3.415,3.415,0,0,1,3.4-3.4H30.435a3.415,3.415,0,0,1,3.4,3.4v1.7h-3.4Z" transform="translate(15.544 12.435)"/><path class="c" d="M8.667,14.682V18.94a1.288,1.288,0,0,0,1.277,1.277H44.852a1.288,1.288,0,0,0,1.277-1.277V14.682A4.68,4.68,0,0,0,41.447,10h-28.1A4.68,4.68,0,0,0,8.667,14.682Z" transform="translate(13.472 15.544)"/></svg>