<svg xmlns="http://www.w3.org/2000/svg" width="21.943" height="20.467" viewBox="0 0 21.943 20.467"><defs><style>.a{fill:#4e4e4e;stroke:#4e4e4e;stroke-width:0.2px;}</style></defs><g transform="translate(-8.9 -25.529)"><path class="a" d="M29.419,34.365h-1.1a1.08,1.08,0,0,0-1.031-.792h-1.17V30.711a.3.3,0,0,0-.147-.267l-8.256-4.769a.3.3,0,0,0-.306,0L9.153,30.444A.307.307,0,0,0,9,30.711v9.537a.308.308,0,0,0,.154.267l8.26,4.769a.308.308,0,0,0,.154.041.324.324,0,0,0,.158-.041l4.346-2.507v1.812A1.3,1.3,0,0,0,23.388,45.9h6.031a1.312,1.312,0,0,0,1.324-1.308v-8.9A1.329,1.329,0,0,0,29.419,34.365ZM27.3,34.189a.447.447,0,0,1,.447.447v.03a.447.447,0,0,1-.447.447h-1.79a.447.447,0,0,1-.447-.447v-.03a.447.447,0,0,1,.447-.447ZM17.568,26.3,21,28.279l-7.643,4.413L9.925,30.71Zm-.293,18.185L9.616,40.07V31.244l7.659,4.413Zm.293-9.36-3.595-2.075,7.643-4.413,3.595,2.075Zm4.5.571v6.372l-4.181,2.418V35.656l7.615-4.413v2.329h.01a1.08,1.08,0,0,0-1.031.792h-1.1A1.322,1.322,0,0,0,22.072,35.693Zm8.055,8.9a.7.7,0,0,1-.708.692H23.388a.688.688,0,0,1-.7-.692v-8.9a.705.705,0,0,1,.7-.712H24.5a1.054,1.054,0,0,0,1.019.748h1.777a1.054,1.054,0,0,0,1.019-.748h1.108a.712.712,0,0,1,.708.712Z" transform="translate(0 0)"/><path class="a" d="M337.306,280.069h.322a.308.308,0,1,0,0-.616h-.012v-.836h.85a.3.3,0,0,0,.293.208.309.309,0,0,0,.31-.307v-.207a.312.312,0,0,0-.311-.31h-1.451a.307.307,0,0,0-.306.31v1.451a.306.306,0,0,0,.306.308Z" transform="translate(-313.563 -241.258)"/><path class="a" d="M337.308,344.069h1.453a.308.308,0,0,0,.308-.308v-1.452a.308.308,0,0,0-.308-.308h-1.453a.308.308,0,0,0-.308.308v1.452A.308.308,0,0,0,337.308,344.069Zm.308-1.452h.836v.836h-.836Z" transform="translate(-313.563 -302.441)"/><path class="a" d="M337.628,407.452h-.012v-.836h.833a.31.31,0,1,0,.619,0v-.3a.321.321,0,0,0-.311-.32h-1.451a.317.317,0,0,0-.306.32v1.451a.3.3,0,0,0,.306.3h.323a.308.308,0,0,0,0-.616Z" transform="translate(-313.563 -363.624)"/><path class="a" d="M356.057,284.629l-.9.9-.274-.275a.308.308,0,1,0-.436.436l.492.492a.308.308,0,0,0,.436,0l1.12-1.12a.308.308,0,0,0-.436-.436Z" transform="translate(-330.154 -247.509)"/><path class="a" d="M356.057,413.878l-.9.9-.274-.275a.308.308,0,0,0-.436.436l.492.492a.308.308,0,0,0,.436,0l1.12-1.12a.308.308,0,1,0-.436-.436Z" transform="translate(-330.154 -371.069)"/><path class="a" d="M416.134,295H414.2a.308.308,0,1,0,0,.616h1.935a.308.308,0,0,0,0-.616Z" transform="translate(-387.07 -257.51)"/><path class="a" d="M416.134,359H414.2a.308.308,0,1,0,0,.616h1.935a.308.308,0,0,0,0-.616Z" transform="translate(-387.07 -318.693)"/><path class="a" d="M416.134,423H414.2a.308.308,0,1,0,0,.616h1.935a.308.308,0,0,0,0-.616Z" transform="translate(-387.07 -379.876)"/></g></svg>