<svg xmlns="http://www.w3.org/2000/svg" width="20" height="20" viewBox="0 0 20 20"><defs><style>.a{fill:#4e4e4e;}</style></defs><path class="a" d="M10,0A10.012,10.012,0,1,1,2.932,2.932,10,10,0,0,1,10,0Zm0,18.182a8.192,8.192,0,1,0-5.782-2.4A8.182,8.182,0,0,0,10,18.182Z" transform="translate(0 0)"/><path class="a" d="M3,5.994V.91A.87.87,0,0,1,3.289.267a1.076,1.076,0,0,1,1.418,0A.87.87,0,0,1,5,.91V6.371a.87.87,0,0,1-.294.643L1.7,9.745A1.059,1.059,0,0,1,.994,10a1.056,1.056,0,0,1-.7-.267A.852.852,0,0,1,.281,8.458Z" transform="translate(6 4)"/></svg>