<svg xmlns="http://www.w3.org/2000/svg" width="33" height="32" viewBox="0 0 33 32"><defs><style>.a,.b{fill:#ff6a00;}.a{opacity:0.1;}</style></defs><g transform="translate(-0.224 -0.43)"><ellipse class="a" cx="16.5" cy="16" rx="16.5" ry="16" transform="translate(0.224 0.43)"/><g transform="translate(8.715 -20.747)"><g transform="translate(0 30.11)"><path class="b" d="M206.735,191.141H199.29a.235.235,0,1,0,0,.469h7.446a.235.235,0,1,0,0-.469Z" transform="translate(-192.828 -186.103)"/><path class="b" d="M206.735,248.474H199.29a.235.235,0,1,0,0,.469h7.446a.235.235,0,1,0,0-.469Z" transform="translate(-192.828 -241.643)"/><path class="b" d="M206.735,305.807H199.29a.235.235,0,1,0,0,.469h7.446a.235.235,0,1,0,0-.469Z" transform="translate(-192.828 -297.182)"/><path class="b" d="M149.411,125.549h-8.936a1.366,1.366,0,0,0-1.365,1.365v5.619a1.366,1.366,0,0,0,1.365,1.365h6.264a.216.216,0,0,1,.171.083l2.023,2.561a.4.4,0,0,0,.318.156.416.416,0,0,0,.137-.023.4.4,0,0,0,.274-.386v-2.414a1.371,1.371,0,0,0,1.115-1.341v-5.619A1.366,1.366,0,0,0,149.411,125.549Zm.9,6.984a.9.9,0,0,1-.884.9.235.235,0,0,0-.232.235v2.45l-1.914-2.423a.683.683,0,0,0-.539-.261h-6.264a.9.9,0,0,1-.9-.9v-5.619a.9.9,0,0,1,.9-.9h8.936a.9.9,0,0,1,.9.9Z" transform="translate(-134.758 -122.563)"/><path class="b" d="M3.457,36.975a.626.626,0,0,0-.4.233L1.44,39.249V37.2a.235.235,0,0,0-.232-.235.752.752,0,0,1-.739-.749V31.328a.75.75,0,0,1,.749-.749H9a.75.75,0,0,1,.749.749v.905a.235.235,0,0,0,.469,0v-.905A1.22,1.22,0,0,0,9,30.11H1.218A1.22,1.22,0,0,0,0,31.328V36.22a1.224,1.224,0,0,0,.971,1.193v2.076a.381.381,0,0,0,.259.364.393.393,0,0,0,.129.022.381.381,0,0,0,.3-.147L3.42,37.5a.158.158,0,0,1,.1-.059.235.235,0,1,0-.066-.465Z" transform="translate(0 -30.11)"/></g></g></g></svg>