<svg xmlns="http://www.w3.org/2000/svg" width="51.13" height="56.431" viewBox="0 0 51.13 56.431"><defs><style>.a{fill:#ff6a00;}</style></defs><g transform="translate(-24.048)"><g transform="translate(24.048 0)"><g transform="translate(0 0)"><path class="a" d="M55.642,28.676l-4.211-1.624-2.417-2.417a.824.824,0,0,0-.57-.241V22.419a8.911,8.911,0,0,0,2.278-4.5l0,0a2.438,2.438,0,0,0,.633-.046,2.528,2.528,0,0,0,1.96-2.508v-.633a2.56,2.56,0,0,0-.771-1.835c.775-4.174.149-7.574-1.818-9.845C48.833.863,45.776-.183,41.888.026a11.572,11.572,0,0,0-6.661,2.464c-1,.13-3.869.854-3.869,4.859a21.609,21.609,0,0,0,.613,5.084,2.529,2.529,0,0,0-1.426,2.308v.624a2.528,2.528,0,0,0,1.961,2.508,2.437,2.437,0,0,0,.633.046l0,0a8.911,8.911,0,0,0,2.278,4.5v1.975a.824.824,0,0,0-.57.241l-2.417,2.417L27.7,28.879a5.7,5.7,0,0,0-3.644,5.546l.673,16.795a.827.827,0,0,0,.825.794h.034a.827.827,0,0,0,.793-.859L25.7,34.359a4.042,4.042,0,0,1,.159-1.3l2.685,2.685a4.02,4.02,0,0,1,1.185,2.862V51.187a.827.827,0,1,0,1.653,0V38.611a5.663,5.663,0,0,0-1.67-4.031l-3.03-3.03a4.04,4.04,0,0,1,1.6-1.129l4.419-1.7,3.373,5.06a2.442,2.442,0,0,0,1.8,1.08q.123.012.244.012a2.436,2.436,0,0,0,1.268-.358L38.67,51.151a.827.827,0,0,0,.79.862H39.5a.827.827,0,0,0,.825-.791l.672-15.429h1.878l.672,15.429a.827.827,0,0,0,.825.791h.037a.827.827,0,0,0,.79-.862l-.724-16.641a2.436,2.436,0,0,0,1.268.358c.081,0,.163,0,.244-.012a2.442,2.442,0,0,0,1.8-1.079l3.373-5.06,3.893,1.5a.827.827,0,0,0,.6-1.543ZM34.766,17.612a1.65,1.65,0,0,0-1.714-1.344.79.79,0,0,1-.213-.015.884.884,0,0,1-.639-.888v-.624a.865.865,0,0,1,.647-.867.8.8,0,0,1,.783.3,1.169,1.169,0,0,0,1.607.252,6.3,6.3,0,0,0,1.693-1.788.827.827,0,0,0-1.4-.885,4.708,4.708,0,0,1-.918,1.064,2.443,2.443,0,0,0-.971-.523,19.875,19.875,0,0,1-.632-4.947,3.078,3.078,0,0,1,1.24-2.814,2.858,2.858,0,0,1,1.317-.421.835.835,0,0,0,.571-.228,9.817,9.817,0,0,1,5.837-2.21c3.359-.182,5.954.668,7.5,2.457,1.569,1.813,2.087,4.6,1.509,8.081a3.7,3.7,0,0,0-.8.055l-.828-1.99A.827.827,0,0,0,48.39,9.8c-.081.021-8.115,2.071-11.5-2.146A.827.827,0,0,0,35.6,8.689c3.436,4.278,10.279,3.319,12.505,2.87l.644,1.546a1.386,1.386,0,0,0,1.6.821,1.93,1.93,0,0,1,.667-.048.861.861,0,0,1,.649.856v.633a.884.884,0,0,1-.639.888.782.782,0,0,1-.214.015A1.65,1.65,0,0,0,49.1,17.612a7.287,7.287,0,0,1-14.333,0Zm3.922,15.369a.8.8,0,0,1-1.228-.122l-3.4-5.1,1.411-1.411,5.251,4.595Zm2.377,1.159.055-1.253.813-.813.813.813.055,1.253Zm.867-4.333-4.859-4.252V23.8a8.938,8.938,0,0,0,9.718,0v1.758Zm4.473,3.052a.8.8,0,0,1-.585.351.786.786,0,0,1-.643-.23l-2.035-2.035,5.251-4.595L49.8,27.762Z" transform="translate(-24.048 0)"/></g></g><g transform="translate(47.02 30.923)"><g transform="translate(0)"><path class="a" d="M260.626,288.46a3.481,3.481,0,0,0-3.477-3.477h-5.358v-1.824a2.6,2.6,0,0,0-2.594-2.594h-5.3a2.6,2.6,0,0,0-2.594,2.594v1.824h-5.358a3.481,3.481,0,0,0-3.477,3.477v2.454a4.369,4.369,0,0,0,.884,2.577v9.195a3.391,3.391,0,0,0,3.387,3.387h19.617a3.391,3.391,0,0,0,3.387-3.387v-9.195a4.369,4.369,0,0,0,.884-2.577V288.46Zm-17.671-5.3h0a.942.942,0,0,1,.941-.94h5.3a.941.941,0,0,1,.94.94v1.824h-7.182Zm16.017,7.755c0,1.419-1.343,2.826-3.648,3.877v-.147a.827.827,0,0,0-.827-.827h-3.534a.827.827,0,0,0-.827.827v2.651a2.594,2.594,0,1,0,5.187,0v-.707a12.791,12.791,0,0,0,2.764-1.484v7.582a1.736,1.736,0,0,1-1.734,1.734H236.738A1.736,1.736,0,0,1,235,302.686V295.1a12.793,12.793,0,0,0,2.764,1.484v.707a2.593,2.593,0,0,0,5.12.586,27.674,27.674,0,0,0,3.659.24c.3,0,.608,0,.91-.014a.827.827,0,0,0-.052-1.652c-.284.009-.573.014-.857.014a25.953,25.953,0,0,1-3.591-.246v-1.578a.827.827,0,0,0-.827-.827h-3.534a.827.827,0,0,0-.827.827v.147c-2.305-1.051-3.648-2.458-3.648-3.877V288.46a1.826,1.826,0,0,1,1.824-1.824h21.2a1.826,1.826,0,0,1,1.824,1.824Zm-5.3,4.557v1.824a.94.94,0,1,1-1.881,0v-1.824Zm-14.25,1.824v-1.824H241.3v1.824a.94.94,0,1,1-1.881,0Z" transform="translate(-232.467 -280.565)"/></g></g></g></svg>