<svg xmlns="http://www.w3.org/2000/svg" width="55.059" height="55.059" viewBox="0 0 55.059 55.059"><defs><style>.a{fill:#ff6a00;}</style></defs><g transform="translate(26.454 40.362)"><path class="a" d="M247.075,375.333A1.075,1.075,0,0,0,246,376.408v.017a1.075,1.075,0,0,0,2.151,0v-.017A1.075,1.075,0,0,0,247.075,375.333Z" transform="translate(-246 -375.333)"/></g><path class="a" d="M44.521,0H10.539A10.551,10.551,0,0,0,0,10.539V44.521A10.551,10.551,0,0,0,10.539,55.059H27.53a1.075,1.075,0,0,0,1.075-1.075V45.65a1.075,1.075,0,1,0-2.151,0v7.259H10.539a8.4,8.4,0,0,1-8.388-8.388V10.539a8.4,8.4,0,0,1,8.388-8.388H44.521a8.4,8.4,0,0,1,8.388,8.388V44.521a8.4,8.4,0,0,1-8.388,8.388H37.638V33.928h6.235a1.075,1.075,0,0,0,1.07-.968l.773-7.684a1.075,1.075,0,0,0-1.07-1.183H37.638V20.058c0-.73.233-1,.858-1h6.1a1.075,1.075,0,0,0,1.075-1.075V10.49A1.075,1.075,0,0,0,44.6,9.415H36.585c-4.541,0-6.949,1.994-8.169,3.667a11.318,11.318,0,0,0-1.962,6.542v4.517H21.185a1.075,1.075,0,0,0-1.075,1.075v7.636a1.075,1.075,0,0,0,1.075,1.075h5.269v3.065a1.075,1.075,0,0,0,2.151,0v-4.14a1.075,1.075,0,0,0-1.075-1.075H22.26V26.292H27.53A1.075,1.075,0,0,0,28.6,25.217V19.624c0-2.423.778-8.059,7.98-8.059h6.938v5.34H38.5a2.89,2.89,0,0,0-3.009,3.153v5.11a1.075,1.075,0,0,0,1.075,1.075h6.895L42.9,31.777H36.563a1.075,1.075,0,0,0-1.075,1.075V53.984a1.075,1.075,0,0,0,1.075,1.075h7.958A10.551,10.551,0,0,0,55.059,44.521V10.539A10.551,10.551,0,0,0,44.521,0Z"/><g transform="translate(5.162 11.023)"><path class="a" d="M49.075,102.5A1.075,1.075,0,0,0,48,103.575v8.979a1.075,1.075,0,1,0,2.151,0v-8.979A1.075,1.075,0,0,0,49.075,102.5Z" transform="translate(-48 -102.5)"/></g><g transform="translate(5.162 24.667)"><path class="a" d="M49.075,229.382A1.075,1.075,0,0,0,48,230.457v.013a1.075,1.075,0,1,0,2.151,0v-.013A1.075,1.075,0,0,0,49.075,229.382Z" transform="translate(-48 -229.382)"/></g></svg>