<svg xmlns="http://www.w3.org/2000/svg" width="34.877" height="32" viewBox="0 0 34.877 32"><defs><style>.a{fill:#646d82;}</style></defs><path class="a" d="M28.286,4.5a10.443,10.443,0,0,0-7.847,3.645A10.443,10.443,0,0,0,12.591,4.5,9.5,9.5,0,0,0,3,14.091c0,6.592,5.929,11.963,14.91,20.124L20.439,36.5l2.529-2.3c8.981-8.144,14.91-13.515,14.91-20.107A9.5,9.5,0,0,0,28.286,4.5ZM20.613,31.617l-.174.174-.174-.174C11.963,24.1,6.488,19.131,6.488,14.091a5.96,5.96,0,0,1,6.1-6.1c2.686,0,6.9,1.715,7.847,4.116.907-2.389,5.162-4.116,7.847-4.116a5.96,5.96,0,0,1,6.1,6.1C34.39,19.131,28.914,24.1,20.613,31.617Z" transform="translate(-3 -4.5)"/></svg>