<svg xmlns="http://www.w3.org/2000/svg" width="46.08" height="46.08" viewBox="0 0 46.08 46.08"><defs><style>.a{fill:#b0cad1;}</style></defs><g transform="translate(-1 -1)"><path class="a" d="M30.932,24.811l-3.969-.567a.725.725,0,0,0-.025-.52.743.743,0,0,0-.547-.41l-3.837-.641V21.555a7.448,7.448,0,0,0,3.567-4.94h.892a2.23,2.23,0,1,0,0-4.459h-.682l.728-1.688a6,6,0,0,0-3.025-7.842l-2.075-.945a7.62,7.62,0,0,0-7.6.825l-1.172.879h0A4.624,4.624,0,0,0,10.2,9.934l1.112,2.221h-.65a2.23,2.23,0,1,0,0,4.459h.892a7.448,7.448,0,0,0,3.567,4.94v1.119l-3.84.64a.743.743,0,0,0-.547.41.722.722,0,0,0-.025.52l-3.967.567A6.722,6.722,0,0,0,1,31.433V46.343a.743.743,0,0,0,.743.743H35.932a.743.743,0,0,0,.743-.743V31.433A6.722,6.722,0,0,0,30.932,24.811Zm-8.488-.649,2.664.446-2.676,4.821L20.2,26.753a3.721,3.721,0,0,0,2.242-2.591Zm5.313-9.778a.743.743,0,0,1-.743.743H26.27V13.641h.743A.743.743,0,0,1,27.756,14.385ZM11.648,6.249a3.16,3.16,0,0,1,2.7-1.526,3.472,3.472,0,0,1,2.893,1.548l.233.351L18.707,5.8l-.233-.35a4.951,4.951,0,0,0-2.8-2.025,6.108,6.108,0,0,1,5.673-.389l2.074.946a4.517,4.517,0,0,1,2.275,5.9l-.223.509L24.709,8.85a.743.743,0,0,0-1.115-.262L22.4,9.479a5.946,5.946,0,0,1-7.135,0l-1.189-.892a.743.743,0,0,0-1.115.262L12.148,10.5l-.614-1.227A3.13,3.13,0,0,1,11.648,6.249Zm-.986,8.879a.743.743,0,0,1,0-1.486h.743v1.486Zm2.23,0v-2.8L13.9,10.311l.477.357a7.432,7.432,0,0,0,8.919,0l.477-.357,1.009,2.019v2.8a5.946,5.946,0,1,1-11.892,0Zm5.946,7.432a7.4,7.4,0,0,0,2.23-.343V23.3a2.23,2.23,0,1,1-4.459,0V22.218a7.4,7.4,0,0,0,2.23.343Zm-3.606,1.6a3.716,3.716,0,0,0,2.242,2.589l-2.23,2.676-2.679-4.821ZM9.919,39.654H27.756V45.6H9.919ZM35.188,45.6H29.243V34.452H27.756v3.716H9.919V34.452H8.432V45.6H2.486V31.433a5.23,5.23,0,0,1,4.467-5.151l4.487-.641L14.472,31.1a.743.743,0,0,0,.58.379h.07a.743.743,0,0,0,.571-.268l3.145-3.771,3.145,3.774a.743.743,0,0,0,.571.268h.07a.743.743,0,0,0,.58-.38l3.029-5.455,4.489.641a5.23,5.23,0,0,1,4.467,5.148Z" transform="translate(0 -0.007)"/><path class="a" d="M47.919,1a8.919,8.919,0,1,0,8.919,8.919A8.919,8.919,0,0,0,47.919,1Zm0,16.351a7.432,7.432,0,1,1,7.432-7.432,7.432,7.432,0,0,1-7.432,7.432Z" transform="translate(-9.757)"/><path class="a" d="M50.716,5.743V5H49.23v.743A2.23,2.23,0,0,0,47,7.973V9.459a2.23,2.23,0,0,0,2.23,2.23v2.973a.743.743,0,0,1-.743-.743V12.432H47v1.486a2.23,2.23,0,0,0,2.23,2.23v.743h1.486v-.743a2.23,2.23,0,0,0,2.23-2.23V12.432a2.23,2.23,0,0,0-2.23-2.23V7.23a.743.743,0,0,1,.743.743V9.459h1.486V7.973A2.23,2.23,0,0,0,50.716,5.743Zm.743,6.689v1.486a.743.743,0,0,1-.743.743V11.689A.743.743,0,0,1,51.459,12.432ZM49.23,10.2a.743.743,0,0,1-.743-.743V7.973a.743.743,0,0,1,.743-.743Z" transform="translate(-11.812 -1.027)"/></g></svg>