<svg xmlns="http://www.w3.org/2000/svg" width="21.89" height="21.89" viewBox="0 0 21.89 21.89"><defs><style>.a{fill:#b0cad1;}</style></defs><g transform="translate(-1 -1)"><path class="a" d="M15.219,12.325l-1.885-.269a.344.344,0,0,0-.012-.247.353.353,0,0,0-.26-.195l-1.823-.3v-.532a3.538,3.538,0,0,0,1.695-2.347h.424a1.059,1.059,0,1,0,0-2.118h-.324l.346-.8a2.852,2.852,0,0,0-1.437-3.725l-.986-.449a3.62,3.62,0,0,0-3.612.392l-.557.418h0A2.2,2.2,0,0,0,5.371,5.258L5.9,6.312H5.59a1.059,1.059,0,1,0,0,2.118h.424a3.538,3.538,0,0,0,1.695,2.347v.532l-1.824.3a.353.353,0,0,0-.26.195.343.343,0,0,0-.012.247l-1.884.269A3.193,3.193,0,0,0,1,15.47v7.083a.353.353,0,0,0,.353.353H17.594a.353.353,0,0,0,.353-.353V15.47A3.193,3.193,0,0,0,15.219,12.325Zm-4.032-.308,1.265.212-1.271,2.29-1.059-1.271a1.767,1.767,0,0,0,1.065-1.231ZM13.71,7.372a.353.353,0,0,1-.353.353H13V7.019h.353A.353.353,0,0,1,13.71,7.372ZM6.058,3.507a1.5,1.5,0,0,1,1.281-.725,1.649,1.649,0,0,1,1.374.735l.111.167.587-.392L9.3,3.126a2.352,2.352,0,0,0-1.331-.962,2.9,2.9,0,0,1,2.695-.185l.985.449a2.146,2.146,0,0,1,1.081,2.8l-.106.242-.362-.731a.353.353,0,0,0-.53-.125l-.565.424a2.824,2.824,0,0,1-3.389,0l-.565-.424a.353.353,0,0,0-.53.125L6.3,5.526,6,4.943a1.487,1.487,0,0,1,.054-1.436ZM5.59,7.725a.353.353,0,1,1,0-.706h.353v.706Zm1.059,0V6.4l.479-.959.227.17a3.531,3.531,0,0,0,4.237,0l.227-.17L12.3,6.4V7.725a2.824,2.824,0,1,1-5.649,0Zm2.824,3.531a3.514,3.514,0,0,0,1.059-.163v.516a1.059,1.059,0,0,1-2.118,0v-.516a3.514,3.514,0,0,0,1.059.163Zm-1.713.761a1.765,1.765,0,0,0,1.065,1.23L7.766,14.518l-1.273-2.29ZM5.237,19.376H13.71V22.2H5.237Zm12,2.824H14.416V16.9H13.71V18.67H5.237V16.9H4.531v5.3H1.706V15.47a2.484,2.484,0,0,1,2.122-2.447l2.131-.3L7.4,15.311a.353.353,0,0,0,.275.18h.033a.353.353,0,0,0,.271-.127l1.494-1.791,1.494,1.793a.353.353,0,0,0,.271.127h.033a.353.353,0,0,0,.275-.18l1.439-2.591,2.132.3a2.484,2.484,0,0,1,2.122,2.445Z" transform="translate(0 -0.017)"/><path class="a" d="M43.237,1a4.237,4.237,0,1,0,4.237,4.237A4.237,4.237,0,0,0,43.237,1Zm0,7.767a3.531,3.531,0,1,1,3.531-3.531,3.531,3.531,0,0,1-3.531,3.531Z" transform="translate(-24.584)"/><path class="a" d="M48.765,5.353V5h-.706v.353A1.059,1.059,0,0,0,47,6.412v.706a1.059,1.059,0,0,0,1.059,1.059V9.59a.353.353,0,0,1-.353-.353V8.531H47v.706A1.059,1.059,0,0,0,48.059,10.3v.353h.706V10.3a1.059,1.059,0,0,0,1.059-1.059V8.531a1.059,1.059,0,0,0-1.059-1.059V6.059a.353.353,0,0,1,.353.353v.706h.706V6.412A1.059,1.059,0,0,0,48.765,5.353Zm.353,3.178v.706a.353.353,0,0,1-.353.353V8.178A.353.353,0,0,1,49.118,8.531ZM48.059,7.471a.353.353,0,0,1-.353-.353V6.412a.353.353,0,0,1,.353-.353Z" transform="translate(-29.759 -2.588)"/></g></svg>