<svg xmlns="http://www.w3.org/2000/svg" width="23.759" height="33.791" viewBox="0 0 23.759 33.791"><defs><style>.a{fill:#ff6a00;}</style></defs><g transform="translate(0 0)"><path class="a" d="M87.88,0A11.882,11.882,0,0,0,77.773,18.127l9.43,15.2a.99.99,0,0,0,.841.468h.008a.99.99,0,0,0,.841-.481l9.19-15.344A11.882,11.882,0,0,0,87.88,0Zm8.5,16.95L88.03,30.9,79.456,17.083a9.906,9.906,0,1,1,16.928-.134Z" transform="translate(-76 0)"/></g><g transform="translate(5.94 5.94)"><g transform="translate(0)"><path class="a" d="M171.94,90a5.94,5.94,0,1,0,5.94,5.94A5.947,5.947,0,0,0,171.94,90Zm0,9.913a3.973,3.973,0,1,1,3.967-3.973A3.976,3.976,0,0,1,171.94,99.913Z" transform="translate(-166 -90)"/></g></g></svg>