<svg xmlns="http://www.w3.org/2000/svg" width="445.603" height="126.278" viewBox="0 0 445.603 126.278"><defs><style>.a{fill:#ff6a00;}</style></defs><path class="a" d="M93.306-132.591a15.839,15.839,0,0,0-5.627-6.516,33.634,33.634,0,0,0-11.107-5.035c-8.885-2.221-18.807-2.666-27.989-2.221a148.931,148.931,0,0,0-22.51,2.962,28.015,28.015,0,0,0-5.331,1.333,4.276,4.276,0,0,0-2.666,4.591c-.148.444-.148,1.037-.3,1.481.3,1.925,1.185,2.666,2.962,2.518a7.823,7.823,0,0,0,1.925-.148c3.11-1.185,6.072-1.925,9.626-2.962a85.959,85.959,0,0,1,9.478-1.333,28.373,28.373,0,0,1,4.443-.592l3.7-.3a45.151,45.151,0,0,1-1.333,5.627,42.58,42.58,0,0,0-1.333,5.924A130.167,130.167,0,0,0,43.7-114.228c-3.258,11.107-7.256,22.065-9.774,33.616C32.885-74.54,32-68.468,32.737-62.545a23.24,23.24,0,0,0,.444,3.554c.3,1.037,1.333,1.185,2.221,1.481a1.11,1.11,0,0,0,1.481-1.037,24.718,24.718,0,0,1,.74-2.666c.148-2.221-.148-5.183.889-7.7L40.734-81.5l.3-2.369c1.037-3.258,1.777-6.368,2.962-9.774l3.554-12.44c1.185-3.85,2.369-7.7,3.554-11.847,1.333-4.739,2.073-8.737,3.258-12.884.74-2.962,1.333-6.072,2.073-8.293H58.8c.74,0,1.629.148,2.666.148a19.188,19.188,0,0,1,5.924.592c2.814.592,5.627-.148,7.849,1.185.148.148.444.148,1.037,0,3.7.148,5.924,1.037,9.478,2.962,1.925,1.037,3.406,2.073,4.147,4a.749.749,0,0,0,.74,1.037,2.169,2.169,0,0,0,2.518-.3,5.651,5.651,0,0,0,.592-1.925A2.207,2.207,0,0,0,93.306-132.591Zm23.843,36.282-.592-1.333-.444-.3a26.691,26.691,0,0,0-3.7,2.518C109-93.2,109.3-93.5,105.746-91.274c-2.073,1.481-4.295,2.814-6.22,4a40.6,40.6,0,0,1-6.812,4.295,9.106,9.106,0,0,1-1.629.444,1.252,1.252,0,0,1-1.037,0,2.756,2.756,0,0,1-1.333-1.629,10.464,10.464,0,0,1-.444-6.368c.148-.3.148-.592.3-.74a7.584,7.584,0,0,0,.3-2.814,2.837,2.837,0,0,0-1.777-2.073c-1.777-.148-2.814,1.037-4,1.185.74-1.481,1.925-2.814,1.481-4.887-.592-3.406-4.147-4-7.256-4.591a11.86,11.86,0,0,0-7.108,4c-1.777,2.221-3.7,4-5.331,6.516-.3.3-.592,1.037-1.185,1.777l-1.037,1.777a28.049,28.049,0,0,0-.889,2.666c0,.148,0,.148-.148.3-.3.889-.592,1.629-1.037,2.666a6.529,6.529,0,0,0,1.185,5.924,13.516,13.516,0,0,1,2.369,1.481,3.68,3.68,0,0,0,1.185.148,8.552,8.552,0,0,0,7.108-.3A35.484,35.484,0,0,0,78.941-81.8c.3-.148.444-.592.74-.889,1.037,0,1.037-1.481,2.073-2.073.148.3.148.592.444.74.444.74.3,1.037,1.185,1.925.592,1.333,1.629,1.925,2.518,3.11.444.148.74.74,1.185.889.3.3,1.185.3,1.481.444a14.367,14.367,0,0,0,2.518-.148,9.44,9.44,0,0,0,1.333-.3,4.346,4.346,0,0,0,1.481-.444c.74-.444,1.185-.3,2.073-.74,1.481-1.037,2.814-1.333,4-2.666l3.554-2.666,2.221-1.925a8.1,8.1,0,0,0,1.629-1.481,5.925,5.925,0,0,0,1.777-1.481,21.737,21.737,0,0,0,2.221-1.333A22.391,22.391,0,0,0,117.148-96.309ZM81.014-92.163c-2.221,2.369-3.258,4.146-5.479,6.516A11.754,11.754,0,0,1,70.8-82.241a18.75,18.75,0,0,1-5.775.74,31.439,31.439,0,0,1,3.406-7.849c1.629-2.814,6.812-9.774,11.255-10.514-.148.148-1.333,6.664,1.925,6.96h.148S81.163-92.163,81.014-92.163Zm34.357,23.4a7.742,7.742,0,0,0,2.369-.889,7.13,7.13,0,0,0,2.962-2.221,9.033,9.033,0,0,0,1.925-2.369,7.416,7.416,0,0,0,1.037-1.185c.74-1.037,1.629-1.777,2.369-2.814a36.037,36.037,0,0,0,2.962-3.7c.148,2.666-.3,5.331.889,7.7.74,1.185.889,2.369,2.518,2.369.148,0,.148.148.444.3.889.889,3.406,1.333,4.591.444,1.037-.592,1.925-1.481,2.814-1.925a12.427,12.427,0,0,0,3.406-3.406,50.023,50.023,0,0,0,4-5.331c0-.148,0-.3.148-.3a2.462,2.462,0,0,0,1.481-2.073l1.185-1.333a30.7,30.7,0,0,0,3.11-11.551c.148-1.481-.444-3.554-.444-5.035a6.133,6.133,0,0,0-1.333-3.406,2.314,2.314,0,0,0-1.777-.889l-.3.444c.3.3.3.74.444,1.481a12.889,12.889,0,0,1-.592,5.331c-.444,1.185-.444,2.369-.889,3.7-1.185,1.925-1.925,4.295-3.11,6.22-1.185,1.629-2.518,3.554-3.554,5.183a47.188,47.188,0,0,1-3.85,3.85c-1.037,1.037-2.073,2.073-3.406,3.258a15.993,15.993,0,0,0,0-2.666,18.881,18.881,0,0,0,.148-2.814l.889-4a3.88,3.88,0,0,1,1.333-2.814.731.731,0,0,0-.148-.444,9.35,9.35,0,0,0-.592-1.333h-1.481v-.148c-.148-.889-1.185-.889-2.518-1.037a.145.145,0,0,1-.148-.148c-.74-.592-1.037-.592-1.481.3-.3.148-.444.444-.74.592-2.073,2.518-3.85,4.887-5.924,7.108-1.925,2.221-3.7,4-5.627,6.072L116.7-76.465c-.3,0-.444,0-.444-.148a31.148,31.148,0,0,1,1.185-6.96,5.642,5.642,0,0,1,.444-1.481,5.262,5.262,0,0,1,.3-1.481c.444-1.185.74-2.369,1.185-3.258.3-1.037.592-1.925.889-2.814l.889-2.666a2.726,2.726,0,0,0-1.185-2.666c-.592-.592-1.481-.148-2.073-.3a1.123,1.123,0,0,1-.592-.3,1.877,1.877,0,0,0-.889-.3c-.889-.3-1.037-.148-1.185.74a18.367,18.367,0,0,0-.592,3.258,49.962,49.962,0,0,0-1.481,5.035,32.724,32.724,0,0,0-1.777,6.22,29.652,29.652,0,0,0-1.037,8,7,7,0,0,0,2.369,5.627,1.583,1.583,0,0,1,.74-.444c.148.3.148.444.3.592C114.335-69.5,114.779-68.913,115.371-68.764Zm49.018-5.183c1.185.444,1.777.148,2.073-1.629.3-1.037.3-2.073.592-3.11.444-1.333.592-2.666,1.185-4.147.889-1.777,2.073-3.406,2.962-5.479,1.037-1.777,2.221-3.258,3.258-4.739l2.814-3.7c.74-.74,1.629-1.481,2.518-2.221.3-.444.592-1.037,1.037-1.185a9.547,9.547,0,0,0,2.369-1.629,3.568,3.568,0,0,1,2.666-.592c1.925.889,2.814.444,2.814.444l.148-.74a3.776,3.776,0,0,0-1.185-1.777c-.3,0-.444-.3-.592-.444a25.784,25.784,0,0,0-2.073-1.777,4.938,4.938,0,0,0-5.775.444,15,15,0,0,0-4.591,4.147,13.468,13.468,0,0,0-2.666,3.11c-.148.444-.74.889-1.185,1.481,0-.74.3-1.185.3-1.629a8.383,8.383,0,0,0-.444-3.85c-.592-2.221-1.777-2.962-3.258-2.369a1.767,1.767,0,0,0-1.333.74c-.148.148-.148.74-.3,1.037-.3,2.073-.74,4-1.037,6.072-.3,1.925-1.037,4-1.333,6.072a28.275,28.275,0,0,1-.889,4.887l-1.185,6.072c-.444,1.925.3,3.406.889,4.887C163.353-74.984,163.5-74.392,164.389-73.948ZM229.1-91.126c.444-.3.74-.74,1.185-1.037a.145.145,0,0,0-.148-.148l-.3-1.037-5.035,3.7a9.4,9.4,0,0,1-1.777,1.037c-1.481.889-4.295,2.518-5.627,3.406l-.444.3-4.887,2.814a13.032,13.032,0,0,1-2.221.74c-1.185.444-2.369,1.037-3.406,1.481a20.463,20.463,0,0,1-4,1.185c-1.925.3-3.85.148-5.776.3-1.185-.444-1.481-.74-2.073-2.518,1.037-.592,1.481-.74,2.666-1.333.3-.3.592-.74,1.037-.889.889-.592,2.073-1.037,3.11-1.629.148-.148.148-.592.3-.74l2.073-1.481c.592-.3,1.629-.444,1.777-1.481.148-.444,1.037-.592,1.481-1.037,1.333-1.333,2.666-2.666,4-4.147a6.086,6.086,0,0,0,1.185-1.925,4.651,4.651,0,0,0-1.481-4.443,14.881,14.881,0,0,0-3.554-2.369c-1.037-.592-2.369-1.629-3.85-1.037a6.517,6.517,0,0,1-1.481.3,7.672,7.672,0,0,0-4.887,2.369c-1.333,1.481-2.666,2.962-4,4.591a30.032,30.032,0,0,0-1.925,2.666,20.226,20.226,0,0,0-2.369,8.589,8.075,8.075,0,0,0,.592,3.85c.3,1.481.3,1.481.592,1.777a10.191,10.191,0,0,0,2.518,2.962c.148.148.592.3.74.592a8.408,8.408,0,0,0,3.406,1.777,21.474,21.474,0,0,0,4.443.889,9.009,9.009,0,0,0,3.406-.444,9.742,9.742,0,0,0,2.221-.592,2.067,2.067,0,0,1,1.333-.444,9.574,9.574,0,0,0,2.962-.592,35.529,35.529,0,0,0,4-2.369A21.907,21.907,0,0,1,218-79.427l2.814-2.221a18.755,18.755,0,0,0,1.925-1.629,4.088,4.088,0,0,0,.889-1.185v-.148c.148-1.037.74-1.333,1.333-1.777-.444-.444-.148-.74.444-1.037l.444-.592c.74-.444.74-.889,1.037-1.185Zm-33.616,1.185a36.95,36.95,0,0,1,3.11-5.183,18.754,18.754,0,0,1,3.7-3.11c1.185-.889,2.518-.889,3.85-1.481.592-.3,1.333,1.037.889,1.777a9.223,9.223,0,0,1-2.073,2.666l-4,3.554-4,3.258c-.592.444-1.333.889-2.518,1.629A15.3,15.3,0,0,1,195.488-89.941ZM267.9-91.126c.444-.3.74-.74,1.185-1.037a.145.145,0,0,0-.148-.148l-.3-1.037-5.035,3.7a9.4,9.4,0,0,1-1.777,1.037c-1.481.889-4.295,2.518-5.627,3.406l-.444.3-4.887,2.814a13.034,13.034,0,0,1-2.221.74c-1.185.444-2.369,1.037-3.406,1.481a20.463,20.463,0,0,1-4,1.185c-1.925.3-3.85.148-5.776.3-1.185-.444-1.481-.74-2.073-2.518,1.037-.592,1.481-.74,2.666-1.333.3-.3.592-.74,1.037-.889.889-.592,2.073-1.037,3.11-1.629.148-.148.148-.592.3-.74l2.073-1.481c.592-.3,1.629-.444,1.777-1.481.148-.444,1.037-.592,1.481-1.037,1.333-1.333,2.666-2.666,4-4.147a6.086,6.086,0,0,0,1.185-1.925,4.651,4.651,0,0,0-1.481-4.443,14.88,14.88,0,0,0-3.554-2.369c-1.037-.592-2.369-1.629-3.85-1.037a6.517,6.517,0,0,1-1.481.3,7.672,7.672,0,0,0-4.887,2.369c-1.333,1.481-2.666,2.962-4,4.591a30.026,30.026,0,0,0-1.925,2.666,20.226,20.226,0,0,0-2.369,8.589,8.075,8.075,0,0,0,.592,3.85c.3,1.481.3,1.481.592,1.777a10.191,10.191,0,0,0,2.518,2.962c.148.148.592.3.74.592a8.408,8.408,0,0,0,3.406,1.777,21.474,21.474,0,0,0,4.443.889,9.009,9.009,0,0,0,3.406-.444,9.742,9.742,0,0,0,2.221-.592,2.067,2.067,0,0,1,1.333-.444,9.574,9.574,0,0,0,2.962-.592,35.529,35.529,0,0,0,4-2.369,21.909,21.909,0,0,1,3.11-1.925l2.814-2.221a18.752,18.752,0,0,0,1.925-1.629,4.088,4.088,0,0,0,.889-1.185v-.148c.148-1.037.74-1.333,1.333-1.777-.444-.444-.148-.74.444-1.037l.444-.592c.74-.444.74-.889,1.037-1.185Zm-33.616,1.185a36.95,36.95,0,0,1,3.11-5.183,18.753,18.753,0,0,1,3.7-3.11c1.185-.889,2.518-.889,3.85-1.481.592-.3,1.333,1.037.889,1.777a9.222,9.222,0,0,1-2.073,2.666l-4,3.554-4,3.258c-.592.444-1.333.889-2.518,1.629A15.3,15.3,0,0,1,234.288-89.941Zm103.071-79.672-.148-2.666-.444-.889a1.156,1.156,0,0,0,.444-.592c-.444-1.185.444-2.518.148-3.7-1.037-1.777-1.333-3.554-2.962-4.443a8.553,8.553,0,0,0-6.96-1.629,13.519,13.519,0,0,0-8.145,4.147c-.592.889-1.333,1.777-1.925,2.518s-1.777,1.481-1.777,2.814c0,.148,0,.148-.148.3-.444.74-1.185,1.481-1.629,2.221a.319.319,0,0,0-.3.3,18.813,18.813,0,0,1-2.221,3.85c-.148.148-.148.148-.148.444l-1.333,2.518a6.074,6.074,0,0,1-1.185,2.073c-.592,1.037-.74,1.925-1.185,2.814-.889,1.629-1.481,2.962-2.221,4.295l-1.333,4a20.547,20.547,0,0,0-1.777,4.443,90,90,0,0,0-3.554,10.662c-.889,2.518-3.11,10.514-3.258,10.959-.444,2.221-.74,4.147-1.185,6.072-.74,2.666-1.185,4.887-1.777,7.4l-1.481,9.922a2.957,2.957,0,0,1-.3,1.333,9.436,9.436,0,0,0-.3,1.037,12.025,12.025,0,0,1-1.037,2.221L286.86-92.9l-4,5.627c-.74,1.037-1.925,1.777-2.518,2.962-1.185,1.037-1.925,2.518-3.258,3.554a12.194,12.194,0,0,1-3.258,2.369,4.76,4.76,0,0,1-4.591.592c.148-1.777-.592-3.406.444-5.331.3-.3.3-.889.444-1.333a21.073,21.073,0,0,1,.889-4.147,1.6,1.6,0,0,0,.3-1.037,19.387,19.387,0,0,0,1.037-1.925,18.875,18.875,0,0,1,4.591-6.22,11.182,11.182,0,0,1,2.073-1.629c2.518-.889,3.85-.592,4.443.889.3,2.073,1.185,2.962,3.11,2.814h.3c4.739-4.147.148-7.7.148-7.7s-8.589-4.147-17.475,5.776l-.889,1.333a21.309,21.309,0,0,0-1.925,3.406c-.3,0-.3.148-.3.148-.3.74-1.037,2.962-1.629,4.443h-.3v.148a24.494,24.494,0,0,1-1.037,4.739c-.3,1.777.889,2.962,1.185,4.295.148.592,0,1.185.148,1.481.592,1.037.889,2.221,1.481,2.666,1.037.74,2.221,1.777,3.258,1.925a8.355,8.355,0,0,0,6.96-.74c1.629-.889,2.962-1.629,4.295-2.518,1.037-1.185,2.221-2.369,3.258-3.406.889-1.185,1.185-1.037,2.666-3.11a13.031,13.031,0,0,1,.889-1.481l1.629-2.369c.3,1.037,1.037,2.814,1.481,4.887l.148.592.444.444a7.537,7.537,0,0,0,3.11,3.85,13.086,13.086,0,0,0,5.924,1.629c1.037,0,2.073.3,2.962.3a6.138,6.138,0,0,0,2.369-.3,12.488,12.488,0,0,0,3.554-1.037c1.333-.74,4.887-1.629,6.368-2.518a47.872,47.872,0,0,1,4-3.406c0-.3-.444-.444-.444-.444,1.185-1.037,1.777-1.777,2.814-2.814-.3,0,1.629-2.518,1.481-2.666-.3,0-.3-.148-.592,0a17.63,17.63,0,0,1-2.221,1.333c-3.7,1.629-7.108,3.85-10.811,5.183a23.655,23.655,0,0,1-6.664,1.481,9.758,9.758,0,0,1-4.591-.444,3.949,3.949,0,0,1-1.777-1.481c-.3-.148-.592-1.037-.592-1.185l-.444-1.629L295-90.089c0-.592-.444-1.333-.148-1.629.444-.74.592-1.185.3-1.481.3-.148.3-.592.3-.74v-.592a1.6,1.6,0,0,1,.3-1.037l6.516-8.293c.148-.3.3-.74.592-.889.3-.444.3-.74.592-1.037.3,0,.3,0,1.037-.74a6.549,6.549,0,0,1,1.925-2.073,12.7,12.7,0,0,0,2.221-2.666l1.185-2.073c.444.148.74-.889,1.037-.74.148-.444,1.185-2.369,1.925-3.85.889-1.185,2.221-3.554,2.369-3.554.889-.889,6.96-9.182,6.22-9.478l2.814-3.406c.74-.889,1.037-1.333,1.333-3.406h.3a5.748,5.748,0,0,1,.889-1.629l1.629-1.777a9.228,9.228,0,0,0,1.185-3.11,5,5,0,0,0,1.037-2.666c.444-.148.592-.3.74-.3a12.738,12.738,0,0,1,.148-2.369l.148-.74v-.148a2.2,2.2,0,0,1,1.037-.148l.74-2.073c1.629-.74,1.333-3.258.889-4.147,0,0,.444-.148.444-.444.444-2.073,1.037-3.7,1.333-5.479l.74-2.814A6.953,6.953,0,0,0,337.358-169.614Zm-5.775-3.258c-.592,2.962-1.185,5.479-1.629,8.441a32.374,32.374,0,0,1-1.629,5.924l-1.333,2.962-2.369,6.368a31.273,31.273,0,0,1-2.666,4.887c-1.481,2.962-3.258,5.776-4.739,8.589a28.479,28.479,0,0,0-2.518,3.85c-1.037,1.481-2.073,3.258-3.11,4.739l-3.406,4.739-2.814,4c-1.037,1.185-1.777,2.518-2.666,3.406-1.333,1.777-2.666,3.7-4,5.183a25.328,25.328,0,0,1-1.629,2.073,9.382,9.382,0,0,1,.592-2.814l.444-2.073c.444-.74.74-1.629,1.185-2.369.148-.148,0-.3,0-.592,0,0-.444-.148-.444-.3.444-.889-.148-2.073.741-3.258a1.147,1.147,0,0,1,.148-.444,7.6,7.6,0,0,1,.74-1.777c-.444-.148-.74-1.037-.592-1.629a12.378,12.378,0,0,0,1.185-2.962,7.563,7.563,0,0,0,.889-2.962,37.06,37.06,0,0,1,1.333-3.7c.3-.889.444-1.777.74-2.814,0-.3-.148-.444-.148-.74,1.185-.3.889-1.925,1.629-2.814l.889-3.258a39.691,39.691,0,0,1,1.925-5.035c.3-1.037.444-2.221.74-3.11a6.2,6.2,0,0,1,1.185-1.777,18.881,18.881,0,0,0,.592-2.073c.592-.889,1.037-1.777,1.629-2.814a17.982,17.982,0,0,0,1.333-2.962A22.786,22.786,0,0,0,315-162.8a29.438,29.438,0,0,0,2.369-3.554,11.92,11.92,0,0,1,1.333-2.073,41.191,41.191,0,0,1,4.887-6.22l2.814-2.814a4.513,4.513,0,0,0,1.481-1.037l1.037-1.185a4.561,4.561,0,0,1,1.777-.74c.148,0,.3.3.3.74C332.175-177.463,331.879-175.241,331.583-172.872Zm41.761,76.563-.592-1.333-.444-.3a26.688,26.688,0,0,0-3.7,2.518c-3.406,2.221-3.11,1.925-6.664,4.147-2.073,1.481-4.295,2.814-6.22,4a40.6,40.6,0,0,1-6.812,4.295,9.105,9.105,0,0,1-1.629.444,1.252,1.252,0,0,1-1.037,0,2.756,2.756,0,0,1-1.333-1.629,10.464,10.464,0,0,1-.444-6.368c.148-.3.148-.592.3-.74a7.585,7.585,0,0,0,.3-2.814,2.837,2.837,0,0,0-1.777-2.073c-1.777-.148-2.814,1.037-4,1.185.74-1.481,1.925-2.814,1.481-4.887-.592-3.406-4.147-4-7.256-4.591a11.86,11.86,0,0,0-7.108,4c-1.777,2.221-3.7,4-5.331,6.516-.3.3-.592,1.037-1.185,1.777l-1.037,1.777a28.027,28.027,0,0,0-.889,2.666c0,.148,0,.148-.148.3-.3.889-.592,1.629-1.037,2.666a6.529,6.529,0,0,0,1.185,5.924,13.517,13.517,0,0,1,2.369,1.481,3.68,3.68,0,0,0,1.185.148,8.552,8.552,0,0,0,7.108-.3,35.485,35.485,0,0,0,6.516-4.295c.3-.148.444-.592.74-.889,1.037,0,1.037-1.481,2.073-2.073.148.3.148.592.444.74.444.74.3,1.037,1.185,1.925.592,1.333,1.629,1.925,2.518,3.11.444.148.74.74,1.185.889.3.3,1.185.3,1.481.444a14.367,14.367,0,0,0,2.518-.148,9.441,9.441,0,0,0,1.333-.3,4.346,4.346,0,0,0,1.481-.444c.74-.444,1.185-.3,2.073-.74,1.481-1.037,2.814-1.333,4-2.666l3.554-2.666,2.221-1.925a8.1,8.1,0,0,0,1.629-1.481,5.925,5.925,0,0,0,1.777-1.481,21.731,21.731,0,0,0,2.221-1.333A22.391,22.391,0,0,0,373.344-96.309ZM337.21-92.163c-2.221,2.369-3.258,4.146-5.479,6.516a11.754,11.754,0,0,1-4.739,3.406,18.75,18.75,0,0,1-5.775.74,31.438,31.438,0,0,1,3.406-7.849c1.629-2.814,6.812-9.774,11.255-10.514-.148.148-1.333,6.664,1.925,6.96h.148S337.358-92.163,337.21-92.163ZM374.381-70.1a4.138,4.138,0,0,0,4.591-1.185c1.185-1.037.889-.74,1.925-2.666a3.359,3.359,0,0,0,.74-2.962,2.1,2.1,0,0,0-1.777-1.037,8.024,8.024,0,0,0-2.221-.3c-1.481-.444-2.221.3-3.11,1.185-.889,1.185-1.037,2.962-1.925,4.591C372.16-72.022,372.752-70.1,374.381-70.1Zm53.9-25.175a1.122,1.122,0,0,1-.592.3,24.7,24.7,0,0,1-2.369,1.777,1.475,1.475,0,0,1-.148.592c-.444-.592-.592,0-.74.148a4.292,4.292,0,0,0-1.481,1.185c-1.185.74-4.591,4.147-5.776,4.887-1.629,1.333-3.258,2.666-5.035,4l-4.591,2.518c-.592,0-1.037.444-1.629.74a10.69,10.69,0,0,1-2.962,1.333,10.525,10.525,0,0,1-3.258,1.037,15.39,15.39,0,0,1-5.627.889c-.444-.148-.889-.3-1.037-.74a7.1,7.1,0,0,1,.148-4.295,26.618,26.618,0,0,1,3.258-7.256c.889-1.333,1.777-2.518,2.518-3.7s1.777-1.925,2.369-3.11a7.039,7.039,0,0,1,3.406-2.814c.444-.3.592-.3.889.3a4.083,4.083,0,0,0,1.037,1.333c.592.444,1.333.74,2.073,1.185.444.3,1.333.444,1.629,0,.444-.592.889-1.037.889-1.629a2.176,2.176,0,0,0,.148-1.629,9.965,9.965,0,0,0-2.221-2.073,9.009,9.009,0,0,0-2.369-1.333,17.629,17.629,0,0,0-2.221-1.333c-.592-.3-1.333,0-1.925-.148a3.583,3.583,0,0,0-3.85,1.037,28.537,28.537,0,0,0-2.221,2.369c-.148.3-.444.592-.74,1.037-.3,0-.444.3-.592.592-2.518,3.406-6.516,9.626-6.812,15.7a8.655,8.655,0,0,0-.3,2.666c.148,1.185.444,2.073.592,2.962a9.047,9.047,0,0,0,1.037,2.073c.74.74,1.481,1.629,2.221,2.221,1.037.592,2.073.889,2.962,1.333.592.148,1.481.148,1.925.3l3.554.444c.592.148,1.037-.444,1.481-.889,1.185-.444,2.666-.74,4-1.333.592-.3,1.333-.444,1.777-.74,0-.592,1.037-.592,1.185-.74.592-.74,2.369-1.925,2.518-2.221a.145.145,0,0,1,.148-.148c.444-.3,3.406-2.962,6.072-5.331l1.777-1.333a12.1,12.1,0,0,0,1.185-1.333,3.229,3.229,0,0,0,.74-.592c.741-.148,2.666-3.258,3.406-3.7.3-.148.3-.444.592-.74,0-.148.3-.444.444-.592.3-.3.3-.444.444-.592.148-.592,1.037-.74.74-1.481,0-.148.148-.444.3-.444.889-.444,1.037-1.185,1.185-2.073C428.582-94.828,428.286-94.976,428.286-95.273ZM463.235-96.9c-3.7,1.333-5.479,1.777-7.7,2.666-2.518.889-5.183,1.629-7.849,2.666-.148-.148,0-.3,0-.444l-1.037-3.258a8.851,8.851,0,0,0-2.221-3.11c-.3-.148-.888-.148-1.037-.3-1.777-1.481-3.85-1.481-5.331-2.073-.3-.148-.592-.148-.741-.3-.592-.592-.889-1.333-1.629-1.333a9.518,9.518,0,0,0-4,.444,17.64,17.64,0,0,0-4.591,3.406c-.889.889-1.481,2.666-2.518,4.147-.148,0-.444,1.925-.74,2.814-.74,2.666-2.073,5.479-1.925,8.293.148,2.369.3,5.183,1.925,6.812a6.284,6.284,0,0,0,4,2.666c1.185.592,2.962.592,4.443.74a2.471,2.471,0,0,0,1.481,0,15.02,15.02,0,0,0,3.554-1.481,3.105,3.105,0,0,0,1.629-.592c.592-.74,1.481-1.481,2.221-2.221l.3-.3c1.333-1.481,2.073-2.962,3.258-4.295.148-.148,0-.74.148-.889.889-.592.889-1.481,1.629-2.221V-85.2l-.3-.148a4.346,4.346,0,0,1,.444-1.481c0-.592.148-.889.889-.889.3,0,.592-.148,1.037-.148a12.1,12.1,0,0,0,4.295-1.037l2.073-.889c.74-.3,1.925-.3,2.073-1.185,0-.148.148-.148.3-.148h1.037c.592,0,.592-.592,1.185-1.037a24.548,24.548,0,0,0,3.85-3.258v-1.333Zm-21.029,5.924H438.06c-.889,0-1.333-.148-1.629-.889a4.689,4.689,0,0,1-.592-2.369c.148-1.333,1.185-1.925,2.073-2.666a2.929,2.929,0,0,1,2.073-.74c.444-.148.74-.148,1.037.3a12.811,12.811,0,0,1,1.185,3.85A14.268,14.268,0,0,0,442.206-90.978Zm-1.333,4.443c-.74,1.037-1.037,2.221-1.629,3.11a17.745,17.745,0,0,1-2.518,3.11,13.857,13.857,0,0,1-5.924,3.7c-1.925.74-3.7.148-3.85-1.037a14.3,14.3,0,0,1-.444-2.666,13.043,13.043,0,0,1,.592-4.739,16.362,16.362,0,0,1,.444-2.369,6.272,6.272,0,0,1,.889-2.073c.74-1.481,1.481-2.666,2.221-4.443a5.474,5.474,0,0,0,.74,1.629,4.26,4.26,0,0,0,2.073,2.221,11.283,11.283,0,0,0,4.295,1.925,8.386,8.386,0,0,0,2.666.444C441.17-87.424,441.466-87.276,440.873-86.535Z" transform="translate(-17.78 183.739)"/></svg>