<svg xmlns="http://www.w3.org/2000/svg" width="247.013" height="70" viewBox="0 0 247.013 70"><defs><style>.a{fill:#44485c;}</style></defs><path class="a" d="M59.647-155.386A8.78,8.78,0,0,0,56.527-159a18.644,18.644,0,0,0-6.157-2.791,54.616,54.616,0,0,0-15.515-1.231,82.558,82.558,0,0,0-12.478,1.642,15.529,15.529,0,0,0-2.955.739,2.37,2.37,0,0,0-1.478,2.545c-.082.246-.082.575-.164.821.164,1.067.657,1.478,1.642,1.4a4.337,4.337,0,0,0,1.067-.082c1.724-.657,3.366-1.067,5.336-1.642a47.645,47.645,0,0,1,5.254-.739,15.727,15.727,0,0,1,2.463-.328l2.052-.164a25.03,25.03,0,0,1-.739,3.119,23.6,23.6,0,0,0-.739,3.284,72.155,72.155,0,0,0-1.97,7.224c-1.806,6.157-4.022,12.232-5.418,18.635a34.526,34.526,0,0,0-.657,10.015,12.882,12.882,0,0,0,.246,1.97c.164.575.739.657,1.231.821a.615.615,0,0,0,.821-.575,13.7,13.7,0,0,1,.41-1.478,13.151,13.151,0,0,1,.493-4.269l1.231-6.978.164-1.313c.575-1.806.985-3.53,1.642-5.418l1.97-6.9c.657-2.134,1.313-4.269,1.97-6.567.739-2.627,1.149-4.843,1.806-7.142.41-1.642.739-3.366,1.149-4.6h1.313c.41,0,.9.082,1.478.082a10.637,10.637,0,0,1,3.284.328c1.56.328,3.119-.082,4.351.657.082.082.246.082.575,0a10.641,10.641,0,0,1,5.254,1.642,4.342,4.342,0,0,1,2.3,2.216.415.415,0,0,0,.41.575,1.2,1.2,0,0,0,1.4-.164,3.132,3.132,0,0,0,.328-1.067A1.223,1.223,0,0,0,59.647-155.386Zm13.217,20.112-.328-.739-.246-.164a14.8,14.8,0,0,0-2.052,1.4c-1.888,1.231-1.724,1.067-3.694,2.3-1.149.821-2.381,1.56-3.448,2.216a22.5,22.5,0,0,1-3.776,2.381,5.048,5.048,0,0,1-.9.246.694.694,0,0,1-.575,0,1.528,1.528,0,0,1-.739-.9,5.8,5.8,0,0,1-.246-3.53c.082-.164.082-.328.164-.41a4.2,4.2,0,0,0,.164-1.56,1.573,1.573,0,0,0-.985-1.149c-.985-.082-1.56.575-2.216.657.41-.821,1.067-1.56.821-2.709-.328-1.888-2.3-2.216-4.022-2.545a6.575,6.575,0,0,0-3.94,2.216,43.371,43.371,0,0,0-2.955,3.612c-.164.164-.328.575-.657.985l-.575.985a15.549,15.549,0,0,0-.493,1.478c0,.082,0,.082-.082.164-.164.493-.328.9-.575,1.478a3.619,3.619,0,0,0,.657,3.284,7.493,7.493,0,0,1,1.313.821,2.04,2.04,0,0,0,.657.082,4.741,4.741,0,0,0,3.94-.164,19.669,19.669,0,0,0,3.612-2.381c.164-.082.246-.328.41-.493.575,0,.575-.821,1.149-1.149.082.164.082.328.246.41.246.41.164.575.657,1.067.328.739.9,1.067,1.4,1.724.246.082.41.41.657.493.164.164.657.164.821.246a7.964,7.964,0,0,0,1.4-.082,5.233,5.233,0,0,0,.739-.164,2.409,2.409,0,0,0,.821-.246c.41-.246.657-.164,1.149-.41a10.43,10.43,0,0,0,2.216-1.478l1.97-1.478,1.231-1.067a4.49,4.49,0,0,0,.9-.821,3.285,3.285,0,0,0,.985-.821,12.05,12.05,0,0,0,1.231-.739A12.412,12.412,0,0,0,72.863-135.274Zm-20.03,2.3c-1.231,1.313-1.806,2.3-3.037,3.612a6.516,6.516,0,0,1-2.627,1.888,10.394,10.394,0,0,1-3.2.41,17.428,17.428,0,0,1,1.888-4.351c.9-1.56,3.776-5.418,6.239-5.828-.082.082-.739,3.694,1.067,3.858h.082S52.915-132.975,52.833-132.975ZM71.878-120a4.292,4.292,0,0,0,1.313-.493,3.952,3.952,0,0,0,1.642-1.231,5.007,5.007,0,0,0,1.067-1.313,4.111,4.111,0,0,0,.575-.657c.41-.575.9-.985,1.313-1.56a19.976,19.976,0,0,0,1.642-2.052c.082,1.478-.164,2.955.493,4.269.41.657.493,1.313,1.4,1.313.082,0,.082.082.246.164a2.373,2.373,0,0,0,2.545.246c.575-.328,1.067-.821,1.56-1.067a6.889,6.889,0,0,0,1.888-1.888,27.73,27.73,0,0,0,2.216-2.955c0-.082,0-.164.082-.164a1.365,1.365,0,0,0,.821-1.149l.657-.739a17.021,17.021,0,0,0,1.724-6.4c.082-.821-.246-1.97-.246-2.791a3.4,3.4,0,0,0-.739-1.888,1.283,1.283,0,0,0-.985-.493l-.164.246c.164.164.164.41.246.821a7.145,7.145,0,0,1-.328,2.955c-.246.657-.246,1.313-.493,2.052-.657,1.067-1.067,2.381-1.724,3.448-.657.9-1.4,1.97-1.97,2.873a26.158,26.158,0,0,1-2.134,2.134c-.575.575-1.149,1.149-1.888,1.806a8.866,8.866,0,0,0,0-1.478,10.467,10.467,0,0,0,.082-1.56l.493-2.216a2.151,2.151,0,0,1,.739-1.56.405.405,0,0,0-.082-.246,5.183,5.183,0,0,0-.328-.739h-.821v-.082c-.082-.493-.657-.493-1.4-.575a.08.08,0,0,1-.082-.082c-.41-.328-.575-.328-.821.164-.164.082-.246.246-.41.328-1.149,1.4-2.134,2.709-3.284,3.94-1.067,1.231-2.052,2.216-3.119,3.366l-.985.985c-.164,0-.246,0-.246-.082a17.266,17.266,0,0,1,.657-3.858,3.128,3.128,0,0,1,.246-.821,2.917,2.917,0,0,1,.164-.821c.246-.657.41-1.313.657-1.806.164-.575.328-1.067.493-1.56l.493-1.478a1.511,1.511,0,0,0-.657-1.478c-.328-.328-.821-.082-1.149-.164a.622.622,0,0,1-.328-.164,1.041,1.041,0,0,0-.493-.164c-.493-.164-.575-.082-.657.41a10.181,10.181,0,0,0-.328,1.806,27.7,27.7,0,0,0-.821,2.791,18.14,18.14,0,0,0-.985,3.448,16.437,16.437,0,0,0-.575,4.433,3.882,3.882,0,0,0,1.313,3.119.878.878,0,0,1,.41-.246c.082.164.082.246.164.328C71.3-120.415,71.55-120.087,71.878-120Zm27.172-2.873c.657.246.985.082,1.149-.9.164-.575.164-1.149.328-1.724.246-.739.328-1.478.657-2.3.493-.985,1.149-1.888,1.642-3.037.575-.985,1.231-1.806,1.806-2.627l1.56-2.052c.41-.41.9-.821,1.4-1.231.164-.246.328-.575.575-.657a5.292,5.292,0,0,0,1.313-.9,1.978,1.978,0,0,1,1.478-.328c1.067.493,1.56.246,1.56.246l.082-.41a2.093,2.093,0,0,0-.657-.985c-.164,0-.246-.164-.328-.246a14.292,14.292,0,0,0-1.149-.985,2.737,2.737,0,0,0-3.2.246,8.314,8.314,0,0,0-2.545,2.3,7.466,7.466,0,0,0-1.478,1.724c-.082.246-.41.493-.657.821,0-.41.164-.657.164-.9a4.647,4.647,0,0,0-.246-2.134c-.328-1.231-.985-1.642-1.806-1.313a.98.98,0,0,0-.739.41c-.082.082-.082.41-.164.575-.164,1.149-.41,2.216-.575,3.366-.164,1.067-.575,2.216-.739,3.366a15.674,15.674,0,0,1-.493,2.709l-.657,3.366a4.255,4.255,0,0,0,.493,2.709C98.476-123.452,98.558-123.124,99.05-122.878Zm35.874-9.523c.246-.164.41-.41.657-.575a.08.08,0,0,0-.082-.082l-.164-.575-2.791,2.052a5.211,5.211,0,0,1-.985.575c-.821.493-2.381,1.4-3.119,1.888l-.246.164-2.709,1.56a7.224,7.224,0,0,1-1.231.41c-.657.246-1.313.575-1.888.821a11.343,11.343,0,0,1-2.216.657c-1.067.164-2.134.082-3.2.164-.657-.246-.821-.41-1.149-1.4.575-.328.821-.41,1.478-.739.164-.164.328-.41.575-.493.493-.328,1.149-.575,1.724-.9.082-.082.082-.328.164-.41l1.149-.821c.328-.164.9-.246.985-.821.082-.246.575-.328.821-.575.739-.739,1.478-1.478,2.216-2.3a3.374,3.374,0,0,0,.657-1.067,2.578,2.578,0,0,0-.821-2.463,8.249,8.249,0,0,0-1.97-1.313c-.575-.328-1.313-.9-2.134-.575a3.613,3.613,0,0,1-.821.164,4.253,4.253,0,0,0-2.709,1.313c-.739.821-1.478,1.642-2.216,2.545a16.646,16.646,0,0,0-1.067,1.478,11.212,11.212,0,0,0-1.313,4.761,4.476,4.476,0,0,0,.328,2.134c.164.821.164.821.328.985a5.649,5.649,0,0,0,1.4,1.642c.082.082.328.164.41.328a4.661,4.661,0,0,0,1.888.985,11.9,11.9,0,0,0,2.463.493,4.994,4.994,0,0,0,1.888-.246,5.4,5.4,0,0,0,1.231-.328,1.146,1.146,0,0,1,.739-.246,5.307,5.307,0,0,0,1.642-.328,19.693,19.693,0,0,0,2.216-1.313,12.144,12.144,0,0,1,1.724-1.067l1.56-1.231a10.4,10.4,0,0,0,1.067-.9,2.266,2.266,0,0,0,.493-.657v-.082c.082-.575.41-.739.739-.985-.246-.246-.082-.41.246-.575l.246-.328c.41-.246.41-.493.575-.657Zm-18.635.657a20.482,20.482,0,0,1,1.724-2.873,10.4,10.4,0,0,1,2.052-1.724,9.574,9.574,0,0,1,2.134-.821c.328-.164.739.575.493.985a5.112,5.112,0,0,1-1.149,1.478l-2.216,1.97-2.216,1.806c-.328.246-.739.493-1.4.9A8.481,8.481,0,0,1,116.29-131.744Zm40.143-.657c.246-.164.41-.41.657-.575a.08.08,0,0,0-.082-.082l-.164-.575-2.791,2.052a5.211,5.211,0,0,1-.985.575c-.821.493-2.381,1.4-3.119,1.888l-.246.164-2.709,1.56a7.225,7.225,0,0,1-1.231.41c-.657.246-1.313.575-1.888.821a11.343,11.343,0,0,1-2.216.657c-1.067.164-2.134.082-3.2.164-.657-.246-.821-.41-1.149-1.4.575-.328.821-.41,1.478-.739.164-.164.328-.41.575-.493.493-.328,1.149-.575,1.724-.9.082-.082.082-.328.164-.41l1.149-.821c.328-.164.9-.246.985-.821.082-.246.575-.328.821-.575.739-.739,1.478-1.478,2.216-2.3a3.374,3.374,0,0,0,.657-1.067,2.578,2.578,0,0,0-.821-2.463,8.249,8.249,0,0,0-1.97-1.313c-.575-.328-1.313-.9-2.134-.575a3.613,3.613,0,0,1-.821.164,4.253,4.253,0,0,0-2.709,1.313c-.739.821-1.478,1.642-2.216,2.545a16.644,16.644,0,0,0-1.067,1.478,11.212,11.212,0,0,0-1.313,4.761,4.476,4.476,0,0,0,.328,2.134c.164.821.164.821.328.985a5.649,5.649,0,0,0,1.4,1.642c.082.082.328.164.41.328a4.661,4.661,0,0,0,1.888.985,11.9,11.9,0,0,0,2.463.493,4.994,4.994,0,0,0,1.888-.246,5.4,5.4,0,0,0,1.231-.328,1.146,1.146,0,0,1,.739-.246,5.307,5.307,0,0,0,1.642-.328,19.7,19.7,0,0,0,2.216-1.313,12.146,12.146,0,0,1,1.724-1.067l1.56-1.231a10.4,10.4,0,0,0,1.067-.9,2.266,2.266,0,0,0,.493-.657v-.082c.082-.575.41-.739.739-.985-.246-.246-.082-.41.246-.575l.246-.328c.41-.246.41-.493.575-.657Zm-18.635.657a20.483,20.483,0,0,1,1.724-2.873,10.4,10.4,0,0,1,2.052-1.724,9.574,9.574,0,0,1,2.134-.821c.328-.164.739.575.493.985a5.112,5.112,0,0,1-1.149,1.478l-2.216,1.97-2.216,1.806c-.328.246-.739.493-1.4.9A8.48,8.48,0,0,1,137.8-131.744Zm57.135-44.165-.082-1.478-.246-.493a.641.641,0,0,0,.246-.328c-.246-.657.246-1.4.082-2.052-.575-.985-.739-1.97-1.642-2.463a4.741,4.741,0,0,0-3.858-.9,7.494,7.494,0,0,0-4.515,2.3c-.328.493-.739.985-1.067,1.4s-.985.821-.985,1.56c0,.082,0,.082-.082.164-.246.41-.657.821-.9,1.231a.177.177,0,0,0-.164.164,10.429,10.429,0,0,1-1.231,2.134c-.082.082-.082.082-.082.246l-.739,1.4a3.367,3.367,0,0,1-.657,1.149c-.328.575-.41,1.067-.657,1.56-.493.9-.821,1.642-1.231,2.381l-.739,2.216a11.389,11.389,0,0,0-.985,2.463,49.89,49.89,0,0,0-1.97,5.911c-.493,1.4-1.724,5.828-1.806,6.075-.246,1.231-.41,2.3-.657,3.366-.41,1.478-.657,2.709-.985,4.1l-.821,5.5a1.639,1.639,0,0,1-.164.739,5.231,5.231,0,0,0-.164.575,6.665,6.665,0,0,1-.575,1.231l-1.313,2.381-2.216,3.119c-.41.575-1.067.985-1.4,1.642-.657.575-1.067,1.4-1.806,1.97a6.759,6.759,0,0,1-1.806,1.313,2.639,2.639,0,0,1-2.545.328c.082-.985-.328-1.888.246-2.955.164-.164.164-.493.246-.739a11.681,11.681,0,0,1,.493-2.3.885.885,0,0,0,.164-.575,10.749,10.749,0,0,0,.575-1.067,10.463,10.463,0,0,1,2.545-3.448,6.2,6.2,0,0,1,1.149-.9c1.4-.493,2.134-.328,2.463.493.164,1.149.657,1.642,1.724,1.56h.164a2.591,2.591,0,0,0,.082-4.269s-4.761-2.3-9.687,3.2l-.493.739a11.813,11.813,0,0,0-1.067,1.888c-.164,0-.164.082-.164.082-.164.41-.575,1.642-.9,2.463h-.164v.082a13.577,13.577,0,0,1-.575,2.627c-.164.985.493,1.642.657,2.381.082.328,0,.657.082.821.328.575.493,1.231.821,1.478a5.224,5.224,0,0,0,1.806,1.067,4.631,4.631,0,0,0,3.858-.41c.9-.493,1.642-.9,2.381-1.4.575-.657,1.231-1.313,1.806-1.888.493-.657.657-.575,1.478-1.724a7.221,7.221,0,0,1,.493-.821l.9-1.313c.164.575.575,1.56.821,2.709l.082.328.246.246a4.178,4.178,0,0,0,1.724,2.134,7.254,7.254,0,0,0,3.284.9c.575,0,1.149.164,1.642.164a3.4,3.4,0,0,0,1.313-.164,6.923,6.923,0,0,0,1.97-.575c.739-.41,2.709-.9,3.53-1.4a26.536,26.536,0,0,1,2.216-1.888c0-.164-.246-.246-.246-.246.657-.575.985-.985,1.56-1.56-.164,0,.9-1.4.821-1.478-.164,0-.164-.082-.328,0a9.774,9.774,0,0,1-1.231.739c-2.052.9-3.94,2.134-5.993,2.873a13.113,13.113,0,0,1-3.694.821,5.409,5.409,0,0,1-2.545-.246,2.189,2.189,0,0,1-.985-.821c-.164-.082-.328-.575-.328-.657l-.246-.9-.41-2.873c0-.328-.246-.739-.082-.9.246-.41.328-.657.164-.821.164-.082.164-.328.164-.41v-.328a.885.885,0,0,1,.164-.575l3.612-4.6c.082-.164.164-.41.328-.493.164-.246.164-.41.328-.575.164,0,.164,0,.575-.41a3.63,3.63,0,0,1,1.067-1.149,7.039,7.039,0,0,0,1.231-1.478l.657-1.149c.246.082.41-.493.575-.41.082-.246.657-1.313,1.067-2.134.493-.657,1.231-1.97,1.313-1.97.493-.493,3.858-5.09,3.448-5.254l1.56-1.888a2.909,2.909,0,0,0,.739-1.888h.164a3.186,3.186,0,0,1,.493-.9l.9-.985a5.115,5.115,0,0,0,.657-1.724,2.771,2.771,0,0,0,.575-1.478c.246-.082.328-.164.41-.164a7.062,7.062,0,0,1,.082-1.313l.082-.41v-.082a1.217,1.217,0,0,1,.575-.082l.41-1.149c.9-.41.739-1.806.493-2.3,0,0,.246-.082.246-.246.246-1.149.575-2.052.739-3.037l.41-1.56A3.854,3.854,0,0,0,194.933-175.909Zm-3.2-1.806c-.328,1.642-.657,3.037-.9,4.679a17.947,17.947,0,0,1-.9,3.284l-.739,1.642-1.313,3.53a17.335,17.335,0,0,1-1.478,2.709c-.821,1.642-1.806,3.2-2.627,4.761a15.787,15.787,0,0,0-1.4,2.134c-.575.821-1.149,1.806-1.724,2.627l-1.888,2.627-1.56,2.216c-.575.657-.985,1.4-1.478,1.888-.739.985-1.478,2.052-2.216,2.873a14.042,14.042,0,0,1-.9,1.149,5.2,5.2,0,0,1,.328-1.56l.246-1.149c.246-.41.41-.9.657-1.313.082-.082,0-.164,0-.328,0,0-.246-.082-.246-.164.246-.493-.082-1.149.41-1.806a.636.636,0,0,1,.082-.246,4.214,4.214,0,0,1,.41-.985c-.246-.082-.41-.575-.328-.9a6.861,6.861,0,0,0,.657-1.642,4.192,4.192,0,0,0,.493-1.642,20.545,20.545,0,0,1,.739-2.052c.164-.493.246-.985.41-1.56,0-.164-.082-.246-.082-.41.657-.164.493-1.067.9-1.56l.493-1.806a22,22,0,0,1,1.067-2.791c.164-.575.246-1.231.41-1.724a3.435,3.435,0,0,1,.657-.985,10.466,10.466,0,0,0,.328-1.149c.328-.493.575-.985.9-1.56a9.969,9.969,0,0,0,.739-1.642,12.632,12.632,0,0,0,.657-1.56,16.319,16.319,0,0,0,1.313-1.97,6.608,6.608,0,0,1,.739-1.149A22.833,22.833,0,0,1,187.3-178.7l1.56-1.56a2.5,2.5,0,0,0,.821-.575l.575-.657a2.528,2.528,0,0,1,.985-.41c.082,0,.164.164.164.41A5.96,5.96,0,0,1,191.731-177.715Zm23.15,42.441-.328-.739-.246-.164a14.8,14.8,0,0,0-2.052,1.4c-1.888,1.231-1.724,1.067-3.694,2.3-1.149.821-2.381,1.56-3.448,2.216a22.5,22.5,0,0,1-3.776,2.381,5.048,5.048,0,0,1-.9.246.694.694,0,0,1-.575,0,1.528,1.528,0,0,1-.739-.9,5.8,5.8,0,0,1-.246-3.53c.082-.164.082-.328.164-.41a4.2,4.2,0,0,0,.164-1.56,1.573,1.573,0,0,0-.985-1.149c-.985-.082-1.56.575-2.216.657.41-.821,1.067-1.56.821-2.709-.328-1.888-2.3-2.216-4.022-2.545a6.575,6.575,0,0,0-3.94,2.216,43.374,43.374,0,0,0-2.955,3.612c-.164.164-.328.575-.657.985l-.575.985a15.543,15.543,0,0,0-.493,1.478c0,.082,0,.082-.082.164-.164.493-.328.9-.575,1.478a3.619,3.619,0,0,0,.657,3.284,7.492,7.492,0,0,1,1.313.821,2.04,2.04,0,0,0,.657.082,4.741,4.741,0,0,0,3.94-.164,19.67,19.67,0,0,0,3.612-2.381c.164-.082.246-.328.41-.493.575,0,.575-.821,1.149-1.149.082.164.082.328.246.41.246.41.164.575.657,1.067.328.739.9,1.067,1.4,1.724.246.082.41.41.657.493.164.164.657.164.821.246a7.964,7.964,0,0,0,1.4-.082,5.234,5.234,0,0,0,.739-.164,2.409,2.409,0,0,0,.821-.246c.41-.246.657-.164,1.149-.41a10.43,10.43,0,0,0,2.216-1.478l1.97-1.478,1.231-1.067a4.491,4.491,0,0,0,.9-.821,3.284,3.284,0,0,0,.985-.821,12.045,12.045,0,0,0,1.231-.739A12.412,12.412,0,0,0,214.881-135.274Zm-20.03,2.3c-1.231,1.313-1.806,2.3-3.037,3.612a6.516,6.516,0,0,1-2.627,1.888,10.393,10.393,0,0,1-3.2.41,17.427,17.427,0,0,1,1.888-4.351c.9-1.56,3.776-5.418,6.239-5.828-.082.082-.739,3.694,1.067,3.858h.082S194.933-132.975,194.851-132.975Zm20.6,12.232A2.294,2.294,0,0,0,218-121.4c.657-.575.493-.41,1.067-1.478a1.862,1.862,0,0,0,.41-1.642,1.162,1.162,0,0,0-.985-.575,4.448,4.448,0,0,0-1.231-.164c-.821-.246-1.231.164-1.724.657a26.57,26.57,0,0,0-1.067,2.545C214.224-121.811,214.553-120.743,215.456-120.743ZM245.337-134.7a.622.622,0,0,1-.328.164,13.689,13.689,0,0,1-1.313.985.818.818,0,0,1-.082.328c-.246-.328-.328,0-.41.082a2.379,2.379,0,0,0-.821.657c-.657.41-2.545,2.3-3.2,2.709-.9.739-1.806,1.478-2.791,2.216l-2.545,1.4c-.328,0-.575.246-.9.41a5.926,5.926,0,0,1-1.642.739,5.834,5.834,0,0,1-1.806.575,8.531,8.531,0,0,1-3.119.493c-.246-.082-.493-.164-.575-.41a3.934,3.934,0,0,1,.082-2.381,14.755,14.755,0,0,1,1.806-4.022c.493-.739.985-1.4,1.4-2.052s.985-1.067,1.313-1.724a3.9,3.9,0,0,1,1.888-1.56c.246-.164.328-.164.493.164a2.263,2.263,0,0,0,.575.739c.328.246.739.41,1.149.657.246.164.739.246.9,0,.246-.328.493-.575.493-.9a1.206,1.206,0,0,0,.082-.9,5.525,5.525,0,0,0-1.231-1.149,4.994,4.994,0,0,0-1.313-.739,9.772,9.772,0,0,0-1.231-.739c-.328-.164-.739,0-1.067-.082a1.986,1.986,0,0,0-2.134.575,15.816,15.816,0,0,0-1.231,1.313c-.082.164-.246.328-.41.575-.164,0-.246.164-.328.328-1.4,1.888-3.612,5.336-3.776,8.7a4.8,4.8,0,0,0-.164,1.478c.082.657.246,1.149.328,1.642a5.015,5.015,0,0,0,.575,1.149c.41.41.821.9,1.231,1.231.575.328,1.149.493,1.642.739.328.082.821.082,1.067.164l1.97.246c.328.082.575-.246.821-.493.657-.246,1.478-.41,2.216-.739.328-.164.739-.246.985-.41,0-.328.575-.328.657-.41.328-.41,1.313-1.067,1.4-1.231a.08.08,0,0,1,.082-.082c.246-.164,1.888-1.642,3.366-2.955l.985-.739a6.71,6.71,0,0,0,.657-.739,1.79,1.79,0,0,0,.41-.328c.41-.082,1.478-1.806,1.888-2.052.164-.082.164-.246.328-.41,0-.082.164-.246.246-.328.164-.164.164-.246.246-.328.082-.328.575-.41.41-.821,0-.082.082-.246.164-.246.493-.246.575-.657.657-1.149C245.5-134.453,245.337-134.535,245.337-134.7Zm19.374-.9c-2.052.739-3.037.985-4.269,1.478-1.4.493-2.873.9-4.351,1.478-.082-.082,0-.164,0-.246l-.575-1.806a4.907,4.907,0,0,0-1.231-1.724c-.164-.082-.493-.082-.575-.164-.985-.821-2.134-.821-2.955-1.149-.164-.082-.328-.082-.41-.164-.328-.328-.493-.739-.9-.739a5.276,5.276,0,0,0-2.216.246,9.778,9.778,0,0,0-2.545,1.888,23.873,23.873,0,0,0-1.4,2.3c-.082,0-.246,1.067-.41,1.56-.41,1.478-1.149,3.037-1.067,4.6.082,1.313.164,2.873,1.067,3.776a3.484,3.484,0,0,0,2.216,1.478,7.739,7.739,0,0,0,2.463.41,1.37,1.37,0,0,0,.821,0,8.326,8.326,0,0,0,1.97-.821,1.721,1.721,0,0,0,.9-.328,17.414,17.414,0,0,1,1.231-1.231l.164-.164c.739-.821,1.149-1.642,1.806-2.381.082-.082,0-.41.082-.493.493-.328.493-.821.9-1.231v-.082l-.164-.082a2.409,2.409,0,0,1,.246-.821c0-.328.082-.493.493-.493.164,0,.328-.082.575-.082a6.707,6.707,0,0,0,2.381-.575l1.149-.493c.41-.164,1.067-.164,1.149-.657,0-.082.082-.082.164-.082H262c.328,0,.328-.328.657-.575a13.607,13.607,0,0,0,2.134-1.806v-.739Zm-11.657,3.284h-2.3c-.493,0-.739-.082-.9-.493a2.6,2.6,0,0,1-.328-1.313c.082-.739.657-1.067,1.149-1.478a1.624,1.624,0,0,1,1.149-.41c.246-.082.41-.082.575.164a7.1,7.1,0,0,1,.657,2.134A7.91,7.91,0,0,0,253.054-132.318Zm-.739,2.463c-.41.575-.575,1.231-.9,1.724a9.837,9.837,0,0,1-1.4,1.724,7.682,7.682,0,0,1-3.284,2.052c-1.067.41-2.052.082-2.134-.575a7.925,7.925,0,0,1-.246-1.478,7.23,7.23,0,0,1,.328-2.627,9.068,9.068,0,0,1,.246-1.313,3.477,3.477,0,0,1,.493-1.149c.41-.821.821-1.478,1.231-2.463a3.034,3.034,0,0,0,.41.9,2.361,2.361,0,0,0,1.149,1.231,6.254,6.254,0,0,0,2.381,1.067,4.648,4.648,0,0,0,1.478.246C252.479-130.348,252.643-130.266,252.315-129.856Z" transform="translate(-17.78 183.739)"/></svg>