<svg xmlns="http://www.w3.org/2000/svg" width="35.267" height="35.267" viewBox="0 0 35.267 35.267"><defs><style>.a{fill:#ff6a00;}.b{fill:#fff;}</style></defs><g transform="translate(0 0)"><path class="a" d="M17.634,0A17.634,17.634,0,1,0,35.267,17.634,17.653,17.653,0,0,0,17.634,0Zm0,0" transform="translate(0 0)"/><g transform="translate(6.272 -66.355)"><g transform="translate(15.632 77.142)"><g transform="translate(0 0)"><path class="b" d="M359.1,101.721l-6.892,6.847,6.892,6.847a1.974,1.974,0,0,0,.2-.856V102.577A1.974,1.974,0,0,0,359.1,101.721Z" transform="translate(-352.211 -101.721)"/></g></g><g transform="translate(1.142 76)"><g transform="translate(0 0)"><path class="b" d="M45.306,76H26.577a1.974,1.974,0,0,0-.856.2l8.808,8.764a2,2,0,0,0,2.824,0L46.162,76.2A1.974,1.974,0,0,0,45.306,76Z" transform="translate(-25.721 -76)"/></g></g><g transform="translate(0 77.142)"><g transform="translate(0 0)"><path class="b" d="M.2,101.721a1.974,1.974,0,0,0-.2.856V114.56a1.974,1.974,0,0,0,.2.856l6.892-6.847Z" transform="translate(0 -101.721)"/></g></g><g transform="translate(1.142 84.93)"><g transform="translate(0 0)"><path class="b" d="M39.27,277.211l-.975.975a3.332,3.332,0,0,1-4.707,0l-.975-.975-6.892,6.847a1.974,1.974,0,0,0,.856.2H45.306a1.974,1.974,0,0,0,.856-.2Z" transform="translate(-25.721 -277.211)"/></g></g></g></g></svg>