<svg xmlns="http://www.w3.org/2000/svg" width="32" height="32" viewBox="0 0 32 32"><defs><style>.a{fill:#ff6a00;}</style></defs><g transform="translate(-0.5)"><path class="a" d="M57.7,17.6V16.533A.533.533,0,0,0,58.233,16V12.8a.533.533,0,0,0-.533-.533H54.82l-.1-.4A9.856,9.856,0,0,0,53.628,9.26L53.415,8.9,55.46,6.855a.529.529,0,0,0,0-.747L53.195,3.84a.541.541,0,0,0-.747,0L50.4,5.889l-.357-.213a9.878,9.878,0,0,0-2.609-1.089l-.4-.1V1.6a.533.533,0,0,0-.533-.533H43.3a.533.533,0,0,0-.533.533V4.48l-.4.1A9.876,9.876,0,0,0,39.76,5.671l-.357.214L37.355,3.84a.541.541,0,0,0-.749,0L34.34,6.1a.53.53,0,0,0,0,.75L36.388,8.9l-.213.357a9.855,9.855,0,0,0-1.088,2.606l-.1.4H32.1a.533.533,0,0,0-.533.533V16a.533.533,0,0,0,.533.533V17.6A1.6,1.6,0,0,1,30.5,16V12.8a1.6,1.6,0,0,1,1.6-1.6h2.064a10.891,10.891,0,0,1,.887-2.124L33.584,7.609a1.595,1.595,0,0,1,0-2.258l2.267-2.267a1.633,1.633,0,0,1,2.259,0L39.576,4.55A10.893,10.893,0,0,1,41.7,3.664V1.6A1.6,1.6,0,0,1,43.3,0h3.2a1.6,1.6,0,0,1,1.6,1.6V3.664a10.9,10.9,0,0,1,2.124.887l1.467-1.467a1.634,1.634,0,0,1,2.259,0L56.216,5.35a1.6,1.6,0,0,1,0,2.258L54.749,9.075a10.932,10.932,0,0,1,.887,2.125H57.7a1.6,1.6,0,0,1,1.6,1.6V16a1.6,1.6,0,0,1-1.6,1.6Zm0,0" transform="translate(-28.4)"/><path class="a" d="M175.433,137.467h-1.067a6.4,6.4,0,1,0-12.8,0H160.5a7.467,7.467,0,0,1,14.933,0Zm0,0" transform="translate(-151.467 -123.067)"/><path class="a" d="M243.7,236.4a3.2,3.2,0,1,1,3.2-3.2A3.2,3.2,0,0,1,243.7,236.4Zm0-5.333a2.133,2.133,0,1,0,2.133,2.133A2.133,2.133,0,0,0,243.7,231.067Zm0,0" transform="translate(-227.2 -217.733)"/><path class="a" d="M413.7,276.4a3.2,3.2,0,1,1,3.2-3.2A3.2,3.2,0,0,1,413.7,276.4Zm0-5.333a2.133,2.133,0,1,0,2.133,2.133A2.133,2.133,0,0,0,413.7,271.067Zm0,0" transform="translate(-388.134 -255.6)"/><path class="a" d="M73.7,276.4a3.2,3.2,0,1,1,3.2-3.2A3.2,3.2,0,0,1,73.7,276.4Zm0-5.333a2.133,2.133,0,1,0,2.133,2.133A2.133,2.133,0,0,0,73.7,271.067Zm0,0" transform="translate(-66.267 -255.6)"/><path class="a" d="M30.4,362.967a4.746,4.746,0,0,0-2.7-.835H23.433a4.773,4.773,0,0,0-.774.07,4.786,4.786,0,0,0-1.306-1.355,2.07,2.07,0,0,0-.246-.16A4.763,4.763,0,0,0,18.633,360H14.366a4.747,4.747,0,0,0-4.025,2.2,4.793,4.793,0,0,0-.775-.07H5.3a4.747,4.747,0,0,0-2.7.834,4.8,4.8,0,0,0-2.1,3.966v2.133a3.737,3.737,0,0,0,2.172,3.389,3.616,3.616,0,0,0,1.561.345H9.566v-1.067h-4.8v-5.867H3.7v5.813a2.5,2.5,0,0,1-.581-.193,2.671,2.671,0,0,1-1.552-2.42v-2.133A3.737,3.737,0,0,1,3.2,363.846a3.689,3.689,0,0,1,2.1-.647H9.566c.094,0,.185.01.276.016a4.8,4.8,0,0,0-.276,1.584v5.333a2.67,2.67,0,0,0,2.667,2.667h1.6v-8.533H12.766v7.467h-.533a1.6,1.6,0,0,1-1.6-1.6V364.8a3.733,3.733,0,0,1,3.733-3.733h4.267a3.726,3.726,0,0,1,1.944.549,1.337,1.337,0,0,1,.156.1,3.778,3.778,0,0,1,1.2,1.333,3.725,3.725,0,0,1,.438,1.752v5.333a1.6,1.6,0,0,1-1.6,1.6h-.533v-7.467H19.166V372.8h1.6a2.67,2.67,0,0,0,2.667-2.667V364.8a4.811,4.811,0,0,0-.276-1.584c.092-.006.182-.016.276-.016H27.7a3.691,3.691,0,0,1,2.1.648,3.738,3.738,0,0,1,1.634,3.085v2.133a2.67,2.67,0,0,1-1.561,2.424,2.451,2.451,0,0,1-.572.189v-5.813H28.233v5.867h-4.8V372.8h5.333a3.607,3.607,0,0,0,1.552-.34,3.738,3.738,0,0,0,2.181-3.393v-2.133a4.8,4.8,0,0,0-2.1-3.965Zm0,0" transform="translate(0 -340.799)"/><path class="a" d="M260.5,580h4.267v1.067H260.5Zm0,0" transform="translate(-246.134 -549.067)"/></g></svg>