<svg xmlns="http://www.w3.org/2000/svg" width="21.701" height="21.701" viewBox="0 0 21.701 21.701"><defs><style>.a{fill:#ff6a00;}</style></defs><path class="a" d="M19.158,11.7H14.241A2.546,2.546,0,0,0,11.7,14.241v4.917A2.546,2.546,0,0,0,14.241,21.7h4.917A2.546,2.546,0,0,0,21.7,19.158V14.241A2.546,2.546,0,0,0,19.158,11.7Zm.848,7.46a.849.849,0,0,1-.848.848H14.241a.849.849,0,0,1-.848-.848V14.241a.849.849,0,0,1,.848-.848h4.917a.849.849,0,0,1,.848.848ZM7.46,11.7H2.543A2.546,2.546,0,0,0,0,14.241v4.917A2.546,2.546,0,0,0,2.543,21.7H7.46A2.546,2.546,0,0,0,10,19.158V14.241A2.546,2.546,0,0,0,7.46,11.7Zm.848,7.46a.849.849,0,0,1-.848.848H2.543a.849.849,0,0,1-.848-.848V14.241a.849.849,0,0,1,.848-.848H7.46a.849.849,0,0,1,.848.848ZM7.46,0H2.543A2.546,2.546,0,0,0,0,2.543V7.46A2.546,2.546,0,0,0,2.543,10H7.46A2.546,2.546,0,0,0,10,7.46V2.543A2.546,2.546,0,0,0,7.46,0Zm.848,7.46a.849.849,0,0,1-.848.848H2.543A.849.849,0,0,1,1.7,7.46V2.543A.849.849,0,0,1,2.543,1.7H7.46a.849.849,0,0,1,.848.848ZM19.158,0H14.241A2.546,2.546,0,0,0,11.7,2.543V7.46A2.546,2.546,0,0,0,14.241,10h4.917A2.546,2.546,0,0,0,21.7,7.46V2.543A2.546,2.546,0,0,0,19.158,0Zm.848,7.46a.849.849,0,0,1-.848.848H14.241a.849.849,0,0,1-.848-.848V2.543a.849.849,0,0,1,.848-.848h4.917a.849.849,0,0,1,.848.848Z"/></svg>