<svg xmlns="http://www.w3.org/2000/svg" width="47.119" height="57.215" viewBox="0 0 47.119 57.215">
  <g id="mobile-phone" transform="translate(-45.182)">
    <path id="Path_16777" data-name="Path 16777" d="M81.645,41.171a.838.838,0,0,0-.838.838v7.817a5.719,5.719,0,0,1-5.713,5.713H52.571a5.719,5.719,0,0,1-5.713-5.713V7.389a5.719,5.719,0,0,1,5.713-5.713h3.885a.838.838,0,0,0,0-1.676H52.571a7.4,7.4,0,0,0-7.389,7.389V49.826a7.4,7.4,0,0,0,7.389,7.389H75.095a7.4,7.4,0,0,0,7.389-7.389V42.009a.838.838,0,0,0-.838-.838Z" fill="#ff6a00"/>
    <path id="Path_16778" data-name="Path 16778" d="M171.381,1.676h15.068a5.719,5.719,0,0,1,5.713,5.713v4.789a.838.838,0,0,0,1.676,0V7.389A7.4,7.4,0,0,0,186.449,0H171.381a.838.838,0,1,0,0,1.676Z" transform="translate(-111.354 0)" fill="#ff6a00"/>
    <path id="Path_16779" data-name="Path 16779" d="M76.02,355.633a.838.838,0,0,0-.838.838v6.1a4.041,4.041,0,0,0,4.037,4.037h22.524a4.041,4.041,0,0,0,4.037-4.037v-9.65a.838.838,0,0,0-1.676,0v9.65a2.364,2.364,0,0,1-2.361,2.361H79.219a2.364,2.364,0,0,1-2.361-2.361v-6.1A.838.838,0,0,0,76.02,355.633Z" transform="translate(-26.648 -312.745)" fill="#ff6a00"/>
    <path id="Path_16780" data-name="Path 16780" d="M83.492,31.783l-.333-.735A1.786,1.786,0,0,0,81.535,30H79.219a4.041,4.041,0,0,0-4.037,4.037V66.8a.838.838,0,0,0,1.676,0V34.037a2.364,2.364,0,0,1,2.361-2.361h2.317a.107.107,0,0,1,.1.063l.333.735A2.779,2.779,0,0,0,84.493,34.1H96.357a2.779,2.779,0,0,0,2.527-1.631l.332-.735a.107.107,0,0,1,.1-.063h2.428a2.364,2.364,0,0,1,2.361,2.361v6.622a.838.838,0,1,0,1.676,0V34.037A4.041,4.041,0,0,0,101.743,30H99.314a1.786,1.786,0,0,0-1.624,1.048l-.333.735a1.1,1.1,0,0,1-1,.645H84.493a1.1,1.1,0,0,1-1-.645Z" transform="translate(-26.648 -26.648)" fill="#ff6a00"/>
    <path id="Path_16781" data-name="Path 16781" d="M200.763,121.76v-7.839a2.167,2.167,0,0,0-2.165-2.165h-.876a2.167,2.167,0,0,0-2.1,1.63l-7.01,3.834-13.631,2.235a4.031,4.031,0,0,0-3.391,3.993v5.831a4.029,4.029,0,0,0,2.689,3.813v9.141a2.03,2.03,0,0,0,2.028,2.028h2.267a2.03,2.03,0,0,0,2.028-2.028v-2.191a4.885,4.885,0,0,0,1.277.172,5.463,5.463,0,0,0,2.152-.463,1.312,1.312,0,0,0,.742-1.559l-.975-3.475,4.815.789,7.01,3.834a2.167,2.167,0,0,0,2.1,1.63h.876a2.167,2.167,0,0,0,2.165-2.165v-7.839a4.67,4.67,0,0,0,3.825-4.587v-.033A4.67,4.67,0,0,0,200.763,121.76Zm-27.493,7.518v-5.831a2.362,2.362,0,0,1,1.987-2.339l1.876-.308v11.124l-1.876-.308A2.361,2.361,0,0,1,173.27,129.278ZM179,137.9a.838.838,0,0,0-.068.331v4a.352.352,0,0,1-.352.352h-2.267a.352.352,0,0,1-.352-.352v-8.8l4.633.76Zm1.655.394,1.459-3.4.961,3.427A3.392,3.392,0,0,1,180.653,138.295Zm8.376-4.419-10.22-1.676V120.526l10.22-1.676a.84.84,0,0,0,.266-.092l2.542-1.39v9.813a.838.838,0,0,0,1.676,0v-10.73l2.044-1.118v22.058l-2.044-1.118v-5.521a.838.838,0,1,0-1.676,0v4.6l-2.542-1.39A.834.834,0,0,0,189.029,133.876Zm10.058,4.93a.489.489,0,0,1-.489.489h-.876a.489.489,0,0,1-.489-.489V113.921a.489.489,0,0,1,.489-.489h.876a.489.489,0,0,1,.489.489Zm3.825-12.425a2.993,2.993,0,0,1-2.149,2.868v-5.769a2.993,2.993,0,0,1,2.149,2.868Z" transform="translate(-112.288 -99.269)" fill="#ff6a00"/>
  </g>
</svg>
