<svg xmlns="http://www.w3.org/2000/svg" width="115.134" height="102" viewBox="0 0 115.134 102"><defs><style>.a{fill:#fff4ec;}.b,.c{fill:#ff6a00;}.c{opacity:0.4;}</style></defs><g transform="translate(-1167 -5498)"><g transform="translate(1166.858 5491.682)"><path class="a" d="M63.961,107.266c-17,2.331-33.007,1.452-45.846-9.517C-.825,81.563-3.128,56.93,3.531,31.78,7.388,17.18,20.937,4.491,33.794,6.536c13.3,2.637,17.214,11.447,19.632,19.8,6.064,20.83,26.041,18.308,41.816,15.785,18.384-3.669,21.416,10.511,15.851,25.531S86.088,103.024,63.961,107.266Z"/><ellipse class="a" cx="3.857" cy="3.841" rx="3.857" ry="3.841" transform="translate(107.562 49.457)"/><ellipse class="a" cx="3.857" cy="3.841" rx="3.857" ry="3.841" transform="translate(10.056 8.619)"/><ellipse class="a" cx="3.857" cy="3.841" rx="3.857" ry="3.841" transform="translate(80.426 94.577)"/><ellipse class="a" cx="3.857" cy="3.841" rx="3.857" ry="3.841" transform="translate(3.531 76.193)"/></g><g transform="translate(1181.311 5505.757)"><path class="b" d="M29.9,0C13.775,0,0,2.491,0,12.449S13.687,24.991,29.9,24.991c16.128,0,29.9-2.491,29.9-12.449S46.118,0,29.9,0" transform="translate(0 48.246)"/><path class="c" d="M19.786,38.754A19.514,19.514,0,0,0,39.573,19.377,19.514,19.514,0,0,0,19.786,0,19.517,19.517,0,0,0,0,19.377,19.517,19.517,0,0,0,19.786,38.754" transform="translate(10.116 0)"/><path class="c" d="M5.145,16.492A25.909,25.909,0,0,1,.519,31.327a.721.721,0,0,0,.5,1.119,16.144,16.144,0,0,0,2.277.211,16.459,16.459,0,0,0,16.57-12A16.457,16.457,0,0,0,3.764,0,16.922,16.922,0,0,0,.436.331.6.6,0,0,0,.049.558a.453.453,0,0,0,.076.5,26.1,26.1,0,0,1,5.02,15.431" transform="translate(52.523 3.236)"/><path class="b" d="M25.418,7.279C24.005,4.327,20.593,2.3,15.4,1.309A74.676,74.676,0,0,0,.154.011.173.173,0,0,0,0,.124.218.218,0,0,0,.138.346C2.988,1.727,14,7.731,12.619,20.394a.842.842,0,0,0,.952.944c2.711-.378,9.686-1.848,11.848-6.417a8.571,8.571,0,0,0,0-7.642" transform="translate(55.058 42.236)"/></g></g></svg>