<svg xmlns="http://www.w3.org/2000/svg" width="131.837" height="122.981" viewBox="0 0 131.837 122.981"><defs><style>.a{opacity:0.62;}.b{fill:#fff4ec;}.c{fill:#ff6a00;}</style></defs><g transform="translate(-1157.246 -6025.612)"><g transform="translate(1157.246 6048.713) rotate(-11.75)"><g class="a" transform="translate(0 0)"><path class="b" d="M63.809,1.052c-17-2.332-33-1.453-45.838,9.519C-.967,26.76-3.269,51.4,3.389,76.551c3.857,14.6,17.4,27.294,30.258,25.249,13.3-2.638,17.211-11.449,19.628-19.8,6.063-20.834,26.037-18.311,41.808-15.788,18.381,3.67,21.413-10.512,15.848-25.536S85.931,5.3,63.809,1.052Z"/></g><ellipse class="b" cx="3.857" cy="3.842" rx="3.857" ry="3.842" transform="translate(107.401 51.187)"/><ellipse class="b" cx="3.857" cy="3.842" rx="3.857" ry="3.842" transform="translate(9.912 92.033)"/><ellipse class="b" cx="3.857" cy="3.842" rx="3.857" ry="3.842" transform="translate(80.271 6.06)"/><ellipse class="b" cx="3.857" cy="3.842" rx="3.857" ry="3.842" transform="translate(3.389 24.448)"/></g><path class="c" d="M1227.847,6062.934l-2.87,17.48,12.317.538h.379a3.247,3.247,0,0,1,2.342,1.694,3.2,3.2,0,0,1,0,2.891l-15.426,29.6a2.382,2.382,0,0,1-4.474-1.465l2.87-17.511-12.327-.568h-.379a3.25,3.25,0,0,1-2.332-1.694,3.209,3.209,0,0,1,0-2.89l15.406-29.55a2.4,2.4,0,0,1,4.494,1.475Zm-3.866-22.005a4.749,4.749,0,0,0,0,9.5,36.544,36.544,0,0,1,36.512,36.505,4.748,4.748,0,1,0,9.5,0A46.05,46.05,0,0,0,1223.98,6040.928Zm-4.813,87.253a4.744,4.744,0,0,0,4.734,4.754h0a4.744,4.744,0,1,0-4.743-4.754Zm-36.442-36.536a4.744,4.744,0,1,0-4.744-4.744c0,.01,0,.02,0,.029A4.744,4.744,0,0,0,1182.725,6091.646Zm18.2,35.1a4.744,4.744,0,1,0-1.724-6.487A4.743,4.743,0,0,0,1200.921,6126.746Zm-1.664-73.17a4.742,4.742,0,1,0-.027-.046Zm-13.393,49.83a4.754,4.754,0,1,0,6.491,1.75l0-.006a4.753,4.753,0,0,0-6.487-1.734Zm73.791,8.97a4.746,4.746,0,1,0-2.372-.649,4.642,4.642,0,0,0,2.372.658Zm-69.018-50.2a4.577,4.577,0,1,0,.008,0Zm49.825,62.9a4.744,4.744,0,0,0,4.115,2.382,4.683,4.683,0,0,0,2.322-.658,4.744,4.744,0,1,0-6.477-1.744h0Z"/></g></svg>