<svg xmlns="http://www.w3.org/2000/svg" width="35.267" height="35.267" viewBox="0 0 35.267 35.267"><defs><style>.a{fill:#ff6a00;}.b{fill:#fff;}</style></defs><g transform="translate(0 0)"><path class="a" d="M17.634,0A17.634,17.634,0,1,0,35.267,17.634,17.653,17.653,0,0,0,17.634,0Zm0,0" transform="translate(0 0)"/><g transform="translate(8.287 8.287)"><g transform="translate(0 0)"><g transform="translate(0 0)"><path class="b" d="M18.33,14.864l-2.072-1.382-1.842-1.228a.816.816,0,0,0-1.1.178L12.18,13.9a.812.812,0,0,1-1.037.215,13.273,13.273,0,0,1-3.706-2.856A13.368,13.368,0,0,1,4.581,7.55.812.812,0,0,1,4.8,6.514l1.465-1.14a.816.816,0,0,0,.178-1.1L5.249,2.493,3.83.363a.816.816,0,0,0-1.1-.247L1.094,1.1A2,2,0,0,0,.186,2.274c-.448,1.632-.538,5.232,5.232,11s9.37,5.68,11,5.232A2,2,0,0,0,17.6,17.6l.982-1.637A.816.816,0,0,0,18.33,14.864Z" transform="translate(0 0)"/><path class="b" d="M282.8,62.437a5.485,5.485,0,0,1,5.479,5.479.322.322,0,1,0,.645,0,6.13,6.13,0,0,0-6.124-6.124.322.322,0,1,0,0,.645Z" transform="translate(-272.169 -59.536)"/><path class="b" d="M282.8,115.4a3.549,3.549,0,0,1,3.545,3.545.322.322,0,0,0,.645,0,4.2,4.2,0,0,0-4.19-4.19.322.322,0,1,0,0,.645Z" transform="translate(-272.168 -110.566)"/><path class="b" d="M282.8,168.368a1.613,1.613,0,0,1,1.611,1.611.322.322,0,0,0,.645,0,2.259,2.259,0,0,0-2.256-2.256.322.322,0,1,0,0,.645Z" transform="translate(-272.169 -161.599)"/></g></g></g></g></svg>