<svg xmlns="http://www.w3.org/2000/svg" width="33" height="32" viewBox="0 0 33 32"><defs><style>.a,.b{fill:#ff6a00;}.a{opacity:0.1;}</style></defs><g transform="translate(-0.224 -0.35)"><ellipse class="a" cx="16.5" cy="16" rx="16.5" ry="16" transform="translate(0.224 0.35)"/><g transform="translate(-0.445 9.256)"><g transform="translate(10.359 -0.002)"><path class="b" d="M23.32,7.278a.416.416,0,0,1,0-.368l.529-1.083a1.232,1.232,0,0,0-.532-1.636l-1.065-.565a.416.416,0,0,1-.216-.3l-.208-1.187a1.232,1.232,0,0,0-1.392-1.011L19.244,1.3a.416.416,0,0,1-.35-.114L18.028.348a1.232,1.232,0,0,0-1.72,0l-.866.838a.416.416,0,0,1-.35.114L13.9,1.131a1.232,1.232,0,0,0-1.392,1.011L12.3,3.329a.416.416,0,0,1-.216.3l-1.065.565a1.232,1.232,0,0,0-.532,1.636l.529,1.083a.416.416,0,0,1,0,.368l-.529,1.083A1.232,1.232,0,0,0,11.018,10l1.065.565a.416.416,0,0,1,.216.3l.208,1.187a1.231,1.231,0,0,0,1.214,1.024,1.266,1.266,0,0,0,.177-.013l1.193-.169a.416.416,0,0,1,.35.114l.866.838a1.232,1.232,0,0,0,1.72,0L18.894,13a.416.416,0,0,1,.35-.114l1.193.169a1.232,1.232,0,0,0,1.392-1.011l.208-1.187a.416.416,0,0,1,.216-.3L23.318,10a1.232,1.232,0,0,0,.532-1.636Zm-.386,2-1.065.565a1.229,1.229,0,0,0-.639.879L21.023,11.9a.417.417,0,0,1-.471.342l-1.193-.169a1.229,1.229,0,0,0-1.033.336l-.866.838a.417.417,0,0,1-.582,0l-.866-.838a1.228,1.228,0,0,0-.857-.348,1.256,1.256,0,0,0-.176.012l-1.193.169a.417.417,0,0,1-.471-.342L13.1,10.718a1.229,1.229,0,0,0-.639-.879L11.4,9.274a.417.417,0,0,1-.18-.554l.529-1.083a1.229,1.229,0,0,0,0-1.086l-.529-1.083a.417.417,0,0,1,.18-.554l1.065-.565a1.229,1.229,0,0,0,.639-.879l.208-1.187a.417.417,0,0,1,.471-.342l1.193.169a1.229,1.229,0,0,0,1.033-.336l.866-.838a.417.417,0,0,1,.582,0l.866.838a1.229,1.229,0,0,0,1.033.336l1.193-.169a.417.417,0,0,1,.471.342l.208,1.187a1.229,1.229,0,0,0,.639.879l1.065.565a.417.417,0,0,1,.18.554l-.529,1.083a1.229,1.229,0,0,0,0,1.086l.529,1.083A.417.417,0,0,1,22.934,9.274Z" transform="translate(-10.359 0.002)"/></g><g transform="translate(14.057 3.984)"><path class="b" d="M149.892,143.911a.409.409,0,0,0-.579,0l-5.4,5.4a.409.409,0,1,0,.579.579l5.4-5.4A.409.409,0,0,0,149.892,143.911Z" transform="translate(-143.791 -143.791)"/></g><g transform="translate(14.03 3.411)"><path class="b" d="M144.3,123.116a1.5,1.5,0,1,0,1.5,1.5A1.5,1.5,0,0,0,144.3,123.116Zm0,2.183a.682.682,0,1,1,.682-.682A.683.683,0,0,1,144.3,125.3Z" transform="translate(-142.802 -123.116)"/></g><g transform="translate(17.304 7.776)"><path class="b" d="M262.423,280.61a1.5,1.5,0,1,0,1.5,1.5A1.5,1.5,0,0,0,262.423,280.61Zm0,2.183a.682.682,0,1,1,.682-.682A.683.683,0,0,1,262.423,282.793Z" transform="translate(-260.922 -280.61)"/></g></g></g></svg>