<svg xmlns="http://www.w3.org/2000/svg" width="32" height="32" viewBox="0 0 32 32">
  <g id="production" transform="translate(-1 -1)">
    <path id="Path_38799" data-name="Path 38799" d="M29.9,26.806H21.55a1.531,1.531,0,0,0,.095-.516V22.161A1.55,1.55,0,0,0,20.1,20.613H15.968a1.531,1.531,0,0,0-.516.095V19.581h3.1V15.452H15.968a5.206,5.206,0,0,0-4.255-5.107l-.237-.711a2.579,2.579,0,0,0,.66-.892h.219A1.546,1.546,0,0,0,13.631,6.32,3.891,3.891,0,0,0,10,1H9.547a3.891,3.891,0,0,0-3.63,5.32,1.534,1.534,0,0,0-.272.873A1.55,1.55,0,0,0,7.194,8.742h.219a2.581,2.581,0,0,0,.66.892l-.236.709a5.2,5.2,0,0,0-4.255,5.108H1v4.129H4.1v7.226A3.1,3.1,0,0,0,4.1,33H29.9a3.1,3.1,0,0,0,0-6.194Zm-2.581,4.645A1.548,1.548,0,1,1,28.871,29.9,1.55,1.55,0,0,1,27.323,31.452ZM24.742,29.9a2.571,2.571,0,0,0,1.048,2.065H22.661a2.557,2.557,0,0,0,0-4.129H25.79A2.571,2.571,0,0,0,24.742,29.9ZM7.194,26.29V22.161a.516.516,0,0,1,.516-.516h.516V23.71h3.1V21.645h.516a.516.516,0,0,1,.516.516V26.29a.516.516,0,0,1-.516.516H7.71A.516.516,0,0,1,7.194,26.29Zm2.065-4.645H10.29v1.032H9.258ZM15.452,29.9A1.548,1.548,0,1,1,13.9,28.355,1.55,1.55,0,0,1,15.452,29.9ZM6.677,28.355A1.548,1.548,0,1,1,5.129,29.9,1.55,1.55,0,0,1,6.677,28.355ZM9.258,29.9A2.571,2.571,0,0,0,8.21,27.839h4.161a2.557,2.557,0,0,0,0,4.129H8.21A2.571,2.571,0,0,0,9.258,29.9Zm7.226,0a2.571,2.571,0,0,0-1.048-2.065H19.6a2.557,2.557,0,0,0,0,4.129H15.436A2.571,2.571,0,0,0,16.484,29.9Zm6.194,0a1.548,1.548,0,1,1-1.548-1.548A1.55,1.55,0,0,1,22.677,29.9Zm-5.161-8.258h1.032v1.032H17.516Zm-1.548,0h.516V23.71h3.1V21.645H20.1a.516.516,0,0,1,.516.516V26.29a.516.516,0,0,1-.516.516H15.968a.516.516,0,0,1-.516-.516V22.161A.516.516,0,0,1,15.968,21.645Zm-1.032-6.194H13.9V12.713A4.152,4.152,0,0,1,14.935,15.452Zm-2.065-2.065H11.839V11.433a4.141,4.141,0,0,1,1.032.429Zm-1.032,1.032h1.032v1.032H11.839Zm.516-6.71V6.677a.516.516,0,1,1,0,1.032ZM6.677,7.194a.516.516,0,0,1,.516-.516V7.71A.516.516,0,0,1,6.677,7.194Zm.568-1.548H7.194a1.53,1.53,0,0,0-.4.058,2.854,2.854,0,0,1,2.75-3.671H10A2.855,2.855,0,0,1,12.752,5.7a1.509,1.509,0,0,0-.4-.058H11.323c-1.011,0-1.032-1.487-1.032-1.55l-.516,0H9.258c0,.892.431,2.581,2.065,2.581V7.71a1.548,1.548,0,1,1-3.1,0V6.086a1.027,1.027,0,0,1,.57-.923l.177-.088-.462-.923-.177.088A2.05,2.05,0,0,0,7.245,5.645ZM9.774,10.29a2.552,2.552,0,0,0,.787-.136l.245.735v4.562H8.742V10.891l.245-.736A2.552,2.552,0,0,0,9.774,10.29Zm-2.065,3.1H6.677V11.869a4.209,4.209,0,0,1,1.032-.432ZM6.677,14.419H7.71v1.032H6.677Zm-1.032-1.7v2.734H4.613A4.137,4.137,0,0,1,5.645,12.717ZM2.032,18.548V16.484H17.516v2.065H15.452V17.516H4.1v1.032Zm3.1,0h9.29V26.29a1.531,1.531,0,0,0,.095.516H13.292a1.519,1.519,0,0,0,.1-.516V22.161a1.55,1.55,0,0,0-1.548-1.548H7.71a1.55,1.55,0,0,0-1.548,1.548V26.29a1.531,1.531,0,0,0,.095.516H5.129ZM2.032,29.9A2.067,2.067,0,0,1,4.1,27.839H5.145a2.557,2.557,0,0,0,0,4.129H4.1A2.067,2.067,0,0,1,2.032,29.9ZM29.9,31.968H28.855a2.557,2.557,0,0,0,0-4.129H29.9a2.065,2.065,0,0,1,0,4.129Z" fill="#ff6a00"/>
    <circle id="Ellipse_1601" data-name="Ellipse 1601" cx="0.5" cy="0.5" r="0.5" transform="translate(6 29)" fill="#ff6a00"/>
    <circle id="Ellipse_1602" data-name="Ellipse 1602" cx="0.5" cy="0.5" r="0.5" transform="translate(13 29)" fill="#ff6a00"/>
    <circle id="Ellipse_1603" data-name="Ellipse 1603" cx="0.5" cy="0.5" r="0.5" transform="translate(21 29)" fill="#ff6a00"/>
    <circle id="Ellipse_1604" data-name="Ellipse 1604" cx="0.5" cy="0.5" r="0.5" transform="translate(27 29)" fill="#ff6a00"/>
    <path id="Path_38800" data-name="Path 38800" d="M46.548,35A1.55,1.55,0,0,0,45,36.548v4.129a1.55,1.55,0,0,0,1.548,1.548h4.129a1.55,1.55,0,0,0,1.548-1.548V36.548A1.55,1.55,0,0,0,50.677,35ZM48.1,36.032h1.032v1.032H48.1Zm3.1.516v4.129a.516.516,0,0,1-.516.516H46.548a.516.516,0,0,1-.516-.516V36.548a.516.516,0,0,1,.516-.516h.516V38.1h3.1V36.032h.516A.516.516,0,0,1,51.194,36.548Z" transform="translate(-21.29 -16.452)" fill="#ff6a00"/>
    <path id="Path_38801" data-name="Path 38801" d="M39.871,13.267a1.967,1.967,0,0,0-1.523,2.244,3.1,3.1,0,0,0-1.058,2.328V19.6l1.183,1.183.73-.73-.881-.881V17.839a2.064,2.064,0,0,1,.461-1.3,2.038,2.038,0,0,0,3.206,0,2.065,2.065,0,0,1,.461,1.3v1.335l-.881.881.73.73L43.484,19.6V17.839a3.1,3.1,0,0,0-1.058-2.328,2.028,2.028,0,0,0,.025-.252A2.062,2.062,0,0,0,40.9,13.267V7H28V8.032H39.871Zm1.548,1.991a1.032,1.032,0,1,1-1.032-1.032A1.033,1.033,0,0,1,41.419,15.258Z" transform="translate(-13.065 -2.903)" fill="#ff6a00"/>
  </g>
</svg>
