<svg xmlns="http://www.w3.org/2000/svg" width="33" height="32" viewBox="0 0 33 32"><defs><style>.a,.b{fill:#ff6a00;}.a{opacity:0.1;}</style></defs><g transform="translate(-0.224 -0.469)"><ellipse class="a" cx="16.5" cy="16" rx="16.5" ry="16" transform="translate(0.224 0.469)"/><g transform="translate(11.031 9.448)"><path class="b" d="M2.478,14.037a2.5,2.5,0,0,1-1.783-.65A2.333,2.333,0,0,1,0,11.622c0-.28.011-.561.029-.827a8.477,8.477,0,0,1,.114-.889,7.2,7.2,0,0,1,.218-.889,4.378,4.378,0,0,1,.365-.833,3.1,3.1,0,0,1,.555-.721,2.408,2.408,0,0,1,.794-.5A2.769,2.769,0,0,1,3.087,6.78a1.019,1.019,0,0,1,.55.231l.574.37a3.266,3.266,0,0,0,.739.327,2.88,2.88,0,0,0,1.813,0,3.236,3.236,0,0,0,.74-.327c.215-.136.408-.261.573-.37a1.026,1.026,0,0,1,.548-.231,2.785,2.785,0,0,1,1.015.183,2.418,2.418,0,0,1,.794.5,3.069,3.069,0,0,1,.552.721,4.147,4.147,0,0,1,.367.83,6.569,6.569,0,0,1,.218.892,8.262,8.262,0,0,1,.114.887c.02.269.029.546.029.83a2.336,2.336,0,0,1-.693,1.765,2.5,2.5,0,0,1-1.784.65Zm-.1-6.307a1.623,1.623,0,0,0-.527.326,2.284,2.284,0,0,0-.405.533,3.543,3.543,0,0,0-.3.677,6.408,6.408,0,0,0-.193.786c-.05.286-.085.555-.1.8s-.024.511-.024.772a1.527,1.527,0,0,0,.438,1.169,1.688,1.688,0,0,0,1.216.424H9.236a1.7,1.7,0,0,0,1.219-.424,1.529,1.529,0,0,0,.435-1.169c0-.264-.008-.522-.024-.77v0c-.019-.242-.052-.511-.1-.8a6.235,6.235,0,0,0-.193-.786,3.61,3.61,0,0,0-.3-.677,2.229,2.229,0,0,0-.4-.533,1.628,1.628,0,0,0-.528-.326A1.828,1.828,0,0,0,8.689,7.6a1.387,1.387,0,0,0-.163.1c-.171.109-.358.231-.579.373a4.211,4.211,0,0,1-.931.417,3.735,3.735,0,0,1-2.319,0,4.1,4.1,0,0,1-.931-.417c-.214-.136-.408-.264-.579-.373a1.309,1.309,0,0,0-.163-.1A1.85,1.85,0,0,0,2.377,7.729Zm1-1.958a3.277,3.277,0,0,1-.99-2.391A3.268,3.268,0,0,1,3.378.99,3.271,3.271,0,0,1,5.769,0,3.27,3.27,0,0,1,8.16.99a3.267,3.267,0,0,1,.989,2.391A3.276,3.276,0,0,1,8.16,5.771a3.281,3.281,0,0,1-2.392.99A3.282,3.282,0,0,1,3.378,5.771Zm.582-4.2a2.45,2.45,0,0,0-.751,1.809A2.453,2.453,0,0,0,3.96,5.189a2.446,2.446,0,0,0,1.809.748,2.448,2.448,0,0,0,1.81-.748,2.441,2.441,0,0,0,.75-1.809,2.438,2.438,0,0,0-.75-1.809A2.44,2.44,0,0,0,5.769.821,2.438,2.438,0,0,0,3.96,1.572Z" transform="translate(-0.004 0.003)"/></g></g></svg>