<svg xmlns="http://www.w3.org/2000/svg" width="28.941" height="27.598" viewBox="0 0 28.941 27.598"><defs><style>.a{fill:none;}.b,.c{stroke:none;}.c{fill:#ff6a00;}</style></defs><g transform="translate(0 -2.816)"><g class="a" transform="translate(-49.548 -12.875)"><path class="b" d="M50.231,25.661l9.374-.869,3.724-8.647a.751.751,0,0,1,1.38,0l3.724,8.646,9.374.869a.751.751,0,0,1,.426,1.312l-7.073,6.213,2.07,9.184a.751.751,0,0,1-1.116.811l-8.095-4.806-8.095,4.806a.751.751,0,0,1-1.116-.811l2.07-9.184L49.8,26.974A.751.751,0,0,1,50.231,25.661Z"/><path class="c" d="M 64.01802062988281 17.07181930541992 L 60.28810882568359 25.73299407958984 L 50.89824676513672 26.60386276245117 L 57.98297882080078 32.82760620117188 L 55.9095458984375 42.027099609375 L 64.01799774169922 37.21242523193359 L 72.12650299072266 42.02710723876953 L 70.05314636230469 32.82760620117188 L 77.13779449462891 26.60386276245117 L 67.74790191650391 25.73292541503906 L 64.01802062988281 17.07181930541992 M 64.01805114746094 15.69150161743164 C 64.29782867431641 15.69150161743164 64.57759094238281 15.84285736083984 64.70791625976562 16.14557266235352 L 68.43150329589844 24.79203414916992 L 77.80543518066406 25.66149520874023 C 78.46183776855469 25.72233581542969 78.72706604003906 26.53874588012695 78.23187255859375 26.97380447387695 L 71.15922546386719 33.18699645996094 L 73.22904968261719 42.37083435058594 C 73.37400817871094 43.013916015625 72.67945861816406 43.5184211730957 72.11270904541016 43.18192291259766 L 64.01799774169922 38.37542343139648 L 55.92331695556641 43.18192291259766 C 55.35652923583984 43.51847839355469 54.66209411621094 43.0139045715332 54.80699157714844 42.37083435058594 L 56.87689208984375 33.18699645996094 L 49.80416107177734 26.97379302978516 C 49.3089599609375 26.53874588012695 49.57427978515625 25.72233581542969 50.2305908203125 25.66149520874023 L 59.60452270507812 24.7921028137207 L 63.32811737060547 16.14557266235352 C 63.45849609375 15.84285736083984 63.73828125 15.69150161743164 64.01805114746094 15.69150161743164 Z"/></g></g></svg>