<svg xmlns="http://www.w3.org/2000/svg" width="131.875" height="122.795" viewBox="0 0 131.875 122.795"><defs><style>.a{opacity:0.62;}.b{fill:#fff4ec;}.c{fill:#ff6a00;}</style></defs><g transform="translate(-600.361 -6144.807)"><g transform="matrix(-0.979, -0.202, 0.204, -0.979, 710.313, 6273.818)"><g class="a"><path class="b" d="M63.95,107.285c-17,2.332-33,1.453-45.838-9.519C-.825,81.577-3.127,56.939,3.53,31.786c3.857-14.6,17.4-27.294,30.258-25.249C47.085,9.175,51,17.986,53.417,26.339,59.48,47.172,79.453,44.649,95.225,42.126c18.381-3.67,21.413,10.512,15.848,25.536S86.073,103.041,63.95,107.285Z"/></g><ellipse class="b" cx="3.857" cy="3.842" rx="3.857" ry="3.842" transform="translate(107.543 49.466)"/><ellipse class="b" cx="3.857" cy="3.842" rx="3.857" ry="3.842" transform="translate(10.054 8.62)"/><ellipse class="b" cx="3.857" cy="3.842" rx="3.857" ry="3.842" transform="translate(80.413 94.593)"/><ellipse class="b" cx="3.857" cy="3.842" rx="3.857" ry="3.842" transform="translate(3.53 76.206)"/></g><path class="c" d="M637.577,6248.052l-7.63-5.508h9.431l2.918-8.913,2.914,8.913h9.431l-7.63,5.508,2.914,8.9-7.63-5.5-7.63,5.5Zm50.334-.176-7.628-5.509h9.43l2.914-8.913,2.914,8.913h9.434l-7.628,5.509,2.91,8.9-7.63-5.5-7.628,5.5Zm-20.45,3.406-7.63,5.5,2.914-8.907-7.633-5.509h9.434l2.914-8.913,2.914,8.913h9.434l-7.633,5.509,2.914,8.907Zm-27.529-22.874V6224.5c0-9.013,7.208-19.534,27.529-19.534s27.529,10.521,27.529,19.534v3.907Zm7.867-46.888a19.66,19.66,0,1,1,19.66,19.53A19.6,19.6,0,0,1,647.8,6181.521Z"/></g></svg>