<svg xmlns="http://www.w3.org/2000/svg" width="33" height="32" viewBox="0 0 33 32"><defs><style>.a,.c{fill:#ff6a00;}.a{opacity:0.1;}.b{fill:none;}</style></defs><g transform="translate(-0.224 -0.39)"><ellipse class="a" cx="16.5" cy="16" rx="16.5" ry="16" transform="translate(0.224 0.39)"/><path class="b" d="M0,0H19.689V19.689H0Z" transform="translate(0.82 4.922)"/><g transform="translate(3.974 -124.455)"><path class="c" d="M144.283,143.715a.673.673,0,0,1,.13-.724l2.018-2.14a1.533,1.533,0,0,0-.748-2.54l-2.909-.718a.669.669,0,0,1-.452-.376l-1.129-2.491a1.533,1.533,0,0,0-2.792,0l-1.129,2.491a.67.67,0,0,1-.452.376l-2.909.718a1.533,1.533,0,0,0-.748,2.54l2.018,2.14a.673.673,0,0,1,.13.724l-.852,2.016a1.537,1.537,0,0,0,1.4,2.132,1.556,1.556,0,0,0,.553-.1l.3-.115a.43.43,0,1,0-.3-.8l-.3.116a.673.673,0,0,1-.859-.891l.851-2.016a1.534,1.534,0,0,0-.3-1.648l-2.018-2.139a.673.673,0,0,1,.328-1.116l2.909-.718a1.524,1.524,0,0,0,1.029-.856l1.129-2.491a.673.673,0,0,1,1.226,0l1.129,2.491a1.524,1.524,0,0,0,1.029.855l2.909.718a.673.673,0,0,1,.328,1.116l-2.018,2.14a1.534,1.534,0,0,0-.3,1.648l.851,2.016a.673.673,0,0,1-.859.891l-3.142-1.192a1.532,1.532,0,0,0-1.088,0l-1.12.425a.43.43,0,0,0,.3.8l1.12-.425a.672.672,0,0,1,.478,0l3.142,1.192a1.533,1.533,0,0,0,1.956-2.03Z" transform="translate(-127.048)"/></g></g></svg>