<svg xmlns="http://www.w3.org/2000/svg" width="121.307" height="105.185" viewBox="0 0 121.307 105.185"><defs><style>.a{fill:#fff4ec;}.b{fill:#ff6a00;}.c{fill:#fff;}</style></defs><g transform="translate(23.139)"><g transform="translate(-630.358 -5612.785)"><path class="a" d="M621.33,5640.832c10.758-13.317,23-23.618,39.9-24.417,24.931-1.176,43.585,15.164,56.077,38,7.258,13.254,6.152,31.743-4.607,39.044-11.489,7.172-20.408,3.442-27.923-.979-18.768-11-31.557,4.486-41.29,17.1-10.84,15.235-22.819,7-29.125-7.732S608.164,5659.042,621.33,5640.832Z"/><ellipse class="a" cx="3.857" cy="3.841" rx="3.857" ry="3.841" transform="translate(629.469 5712.674) rotate(136.654)"/><ellipse class="a" cx="3.857" cy="3.841" rx="3.857" ry="3.841" transform="translate(728.527 5675.724) rotate(136.654)"/><ellipse class="a" cx="3.857" cy="3.841" rx="3.857" ry="3.841" transform="translate(618.103 5661.314) rotate(136.654)"/><ellipse class="a" cx="3.857" cy="3.841" rx="3.857" ry="3.841" transform="translate(686.694 5622.123) rotate(136.654)"/></g><path class="b" d="M37.9,88.269a3.451,3.451,0,0,1-1.586-.381L20.417,79.661A37.308,37.308,0,0,1,9.624,71.646,36.379,36.379,0,0,1,.187,47.488L0,18.2a8,8,0,0,1,5.421-7.556L34.6.471a8.308,8.308,0,0,1,5.43-.03l29.294,9.828a7.984,7.984,0,0,1,5.514,7.483l.187,29.308A36.378,36.378,0,0,1,65.91,71.313a37.175,37.175,0,0,1-10.686,8.141L39.473,87.866a3.372,3.372,0,0,1-1.577.4" transform="translate(0 0)"/><path class="c" d="M11.812,23.458a3.37,3.37,0,0,1-2.364-.935L.988,14.387A3.186,3.186,0,0,1,.961,9.8a3.4,3.4,0,0,1,4.714-.03l6.087,5.851L26.625.966a3.4,3.4,0,0,1,4.714-.03,3.183,3.183,0,0,1,.031,4.587L14.162,22.493a3.355,3.355,0,0,1-2.35.965" transform="translate(22.698 30.92)"/></g></svg>