<svg xmlns="http://www.w3.org/2000/svg" width="131.825" height="122.944" viewBox="0 0 131.825 122.944"><defs><style>.a{opacity:0.62;}.b{fill:#fff4ec;}.c{fill:#ff6a00;}.d{fill:#fff;}</style></defs><g transform="translate(-598.74 -6144.366)"><g transform="translate(619.501 6144.366) rotate(11.745)"><g class="a" transform="translate(0 0)"><path class="b" d="M63.805,100.913c-17,2.359-33,1.505-45.837-9.446C-.968,75.308-3.269,50.674,3.39,25.51,7.248,10.9,20.795-1.812,33.65.213c13.3,2.617,17.21,11.422,19.627,19.77C59.339,40.808,79.313,38.253,95.085,35.7c18.381-3.7,21.412,10.478,15.847,25.511S85.928,96.634,63.805,100.913Z"/></g><path class="b" d="M3.857,0A3.842,3.842,0,1,1,0,3.848,3.842,3.842,0,0,1,3.857,0Z" transform="translate(107.402 43.019)"/><path class="b" d="M3.857,0A3.842,3.842,0,1,1,0,3.848,3.842,3.842,0,0,1,3.857,0Z" transform="translate(9.915 2.328)"/><path class="b" d="M3.857,0A3.842,3.842,0,1,1,0,3.848,3.842,3.842,0,0,1,3.857,0Z" transform="translate(80.268 88.189)"/><path class="b" d="M3.857,0A3.842,3.842,0,1,1,0,3.848,3.842,3.842,0,0,1,3.857,0Z" transform="translate(3.387 69.924)"/></g><g transform="translate(624.543 6162.75)"><path class="c" d="M34.164,68.329a10.266,10.266,0,0,1-7.257-2.99l-2.494-2.494a5.14,5.14,0,0,0-3.635-1.5H17.269A10.3,10.3,0,0,1,6.981,51.057V47.545a5.155,5.155,0,0,0-1.5-3.639l-2.453-2.45a10.3,10.3,0,0,1-.038-14.545l2.494-2.5a5.14,5.14,0,0,0,1.5-3.635V17.273A10.3,10.3,0,0,1,17.269,6.982h3.512a5.107,5.107,0,0,0,3.635-1.507l2.457-2.45a10.3,10.3,0,0,1,14.545-.038l2.494,2.494a5.115,5.115,0,0,0,3.632,1.5h3.512A10.3,10.3,0,0,1,61.344,17.273v3.509a5.155,5.155,0,0,0,1.5,3.639L65.3,26.874a10.282,10.282,0,0,1,.068,14.511c-.034.034-.065.072-.1.1l-2.426,2.426a5.14,5.14,0,0,0-1.5,3.635v3.509A10.3,10.3,0,0,1,51.056,61.345H47.544a5.141,5.141,0,0,0-3.635,1.5L41.452,65.3a10.246,10.246,0,0,1-7.288,3.027" transform="translate(6.833 6.832)"/><path class="d" d="M18.45,22.678a3.075,3.075,0,0,1-.646-.962,2.886,2.886,0,0,1-.209-1.162,2.917,2.917,0,0,1,.209-1.165,4.082,4.082,0,0,1,.612-.926A3.025,3.025,0,0,1,21.71,17.8a2.685,2.685,0,0,1,.987.64,3.066,3.066,0,0,1,0,4.225,3.1,3.1,0,0,1-2.116.879A3.055,3.055,0,0,1,18.45,22.678ZM.895,22.666a3,3,0,0,1,0-4.231L18.456.873A2.99,2.99,0,0,1,22.681,5.1L5.12,22.666a2.992,2.992,0,0,1-4.225,0ZM.889,5.111A3,3,0,0,1,0,2.992,3.123,3.123,0,0,1,.867.892,2.714,2.714,0,0,1,1.9.228,2.924,2.924,0,0,1,5.111.889a3.132,3.132,0,0,1,.661.938A2.911,2.911,0,0,1,5.1,5.114a2.92,2.92,0,0,1-2.106.867A3.086,3.086,0,0,1,.889,5.111Z" transform="translate(29.219 29.226)"/></g></g></svg>