<svg xmlns="http://www.w3.org/2000/svg" width="121.307" height="101.614" viewBox="0 0 121.307 101.614"><defs><style>.a{fill:#fff4ec;}.b{fill:#ff6a00;}.c{fill:#fff;}</style></defs><g transform="translate(-607.219 -5616.356)"><path class="a" d="M621.33,5640.832c10.758-13.317,23-23.618,39.9-24.417,24.931-1.176,43.585,15.164,56.077,38,7.258,13.254,6.152,31.743-4.607,39.044-11.489,7.172-20.408,3.442-27.923-.979-18.768-11-31.557,4.486-41.29,17.1-10.84,15.235-22.819,7-29.125-7.732S608.164,5659.042,621.33,5640.832Z"/><ellipse class="a" cx="3.857" cy="3.841" rx="3.857" ry="3.841" transform="translate(629.469 5712.674) rotate(136.654)"/><ellipse class="a" cx="3.857" cy="3.841" rx="3.857" ry="3.841" transform="translate(728.527 5675.724) rotate(136.654)"/><ellipse class="a" cx="3.857" cy="3.841" rx="3.857" ry="3.841" transform="translate(618.103 5661.314) rotate(136.654)"/><ellipse class="a" cx="3.857" cy="3.841" rx="3.857" ry="3.841" transform="translate(686.694 5622.123) rotate(136.654)"/><g transform="translate(628.507 5641.007)"><path class="b" d="M63.985,31.993A31.993,31.993,0,1,1,31.993,0,31.99,31.99,0,0,1,63.985,31.993"/><path class="c" d="M14.957,28.438a2.418,2.418,0,0,1-1.229-.336L1.168,20.61A2.411,2.411,0,0,1,0,18.546V2.4a2.4,2.4,0,0,1,4.8,0V17.183l11.389,6.792a2.4,2.4,0,0,1-1.232,4.463" transform="translate(28.469 15.758)"/></g></g></svg>