<svg xmlns="http://www.w3.org/2000/svg" width="33" height="32" viewBox="0 0 33 32"><defs><style>.a,.b{fill:#ff6a00;}.a{opacity:0.1;}</style></defs><g transform="translate(-0.224 -0.326)"><ellipse class="a" cx="16.5" cy="16" rx="16.5" ry="16" transform="translate(0.224 0.326)"/><g transform="translate(9.527 9.129)"><path class="b" d="M7.868,14.393H6.525a.9.9,0,0,1-.891-.792L5.49,12.476a5.667,5.667,0,0,1-.824-.341l-.9.7a.9.9,0,0,1-1.19-.076l-.945-.945a.892.892,0,0,1-.073-1.187l.7-.9A5.537,5.537,0,0,1,1.917,8.9L.79,8.761A.9.9,0,0,1,0,7.868V6.525a.9.9,0,0,1,.792-.891L1.917,5.49a5.667,5.667,0,0,1,.341-.824l-.7-.9a.894.894,0,0,1,.076-1.191l.945-.945A.893.893,0,0,1,3.77,1.562l.9.7a5.647,5.647,0,0,1,.825-.341L5.634.79A.9.9,0,0,1,6.525,0H7.868a.9.9,0,0,1,.891.792L8.9,1.917a5.647,5.647,0,0,1,.825.341l.9-.7a.894.894,0,0,1,1.19.076l.945.945a.892.892,0,0,1,.073,1.187l-.7.9a5.537,5.537,0,0,1,.341.824l1.127.143a.9.9,0,0,1,.789.892V7.868a.9.9,0,0,1-.792.891L12.476,8.9a5.667,5.667,0,0,1-.341.824l.7.9a.893.893,0,0,1-.076,1.19l-.945.945a.892.892,0,0,1-1.187.073l-.9-.7a5.537,5.537,0,0,1-.824.341L8.76,13.6a.9.9,0,0,1-.892.79ZM4.636,11.479a.3.3,0,0,1,.146.038,5.034,5.034,0,0,0,1.064.441.3.3,0,0,1,.215.25l.168,1.319a.3.3,0,0,0,.3.266H7.868a.3.3,0,0,0,.3-.263l.169-1.322a.3.3,0,0,1,.215-.25,5.034,5.034,0,0,0,1.064-.441.3.3,0,0,1,.33.025l1.05.816a.3.3,0,0,0,.393-.02l.951-.951a.3.3,0,0,0,.023-.4l-.816-1.05a.3.3,0,0,1-.025-.33,5.034,5.034,0,0,0,.441-1.064.3.3,0,0,1,.25-.215l1.319-.168a.3.3,0,0,0,.266-.3V6.525a.3.3,0,0,0-.263-.3l-1.322-.169a.3.3,0,0,1-.25-.215,5.034,5.034,0,0,0-.441-1.064.3.3,0,0,1,.025-.33l.816-1.05a.294.294,0,0,0-.02-.392l-.951-.951a.3.3,0,0,0-.4-.023l-1.05.816a.3.3,0,0,1-.33.025,5.013,5.013,0,0,0-1.064-.441.3.3,0,0,1-.215-.25L8.165.867A.3.3,0,0,0,7.868.6H6.525a.3.3,0,0,0-.3.263L6.061,2.185a.3.3,0,0,1-.215.251,5.011,5.011,0,0,0-1.064.441.3.3,0,0,1-.33-.025L3.4,2.036a.294.294,0,0,0-.392.02l-.951.951a.3.3,0,0,0-.023.4l.816,1.05a.3.3,0,0,1,.025.33,5,5,0,0,0-.441,1.064.3.3,0,0,1-.25.215L.866,6.229a.3.3,0,0,0-.266.3V7.868a.3.3,0,0,0,.263.3l1.322.169a.3.3,0,0,1,.25.215,5.034,5.034,0,0,0,.441,1.064.3.3,0,0,1-.025.33l-.816,1.05a.294.294,0,0,0,.02.392l.951.951a.3.3,0,0,0,.4.023l1.05-.816a.309.309,0,0,1,.185-.062Z"/><g transform="translate(4.198 4.198)"><path class="b" d="M10,13a3,3,0,1,1,3-3A3,3,0,0,1,10,13Zm0-5.4A2.4,2.4,0,1,0,12.4,10,2.4,2.4,0,0,0,10,7.6Z" transform="translate(-7 -7)"/></g></g></g></svg>