<svg xmlns="http://www.w3.org/2000/svg" width="27.86" height="19.201" viewBox="0 0 27.86 19.201"><defs><style>.a{fill:#ff6a00;}</style></defs><g transform="translate(0.001 -0.496)"><path class="a" d="M23.78,4.576A13.93,13.93,0,0,0,0,14.426a13.882,13.882,0,0,0,.823,4.726.824.824,0,1,0,1.55-.559,12.163,12.163,0,0,1-.7-3.344H4.208a.824.824,0,0,0,0-1.647H1.675a12.193,12.193,0,0,1,1.231-4.59L5.1,10.279a.824.824,0,0,0,.824-1.427L3.732,7.587A12.384,12.384,0,0,1,7.091,4.228l1.265,2.19a.824.824,0,1,0,1.426-.824L8.516,3.4a12.188,12.188,0,0,1,4.59-1.231V4.7a.824.824,0,0,0,1.648,0V2.172A12.193,12.193,0,0,1,19.343,3.4L18.077,5.6a.824.824,0,1,0,1.427.824l1.265-2.19a12.381,12.381,0,0,1,3.359,3.359l-2.19,1.265a.824.824,0,1,0,.824,1.427l2.192-1.266a12.191,12.191,0,0,1,1.231,4.59H23.651a.824.824,0,1,0,0,1.647h2.532a12.148,12.148,0,0,1-.634,3.167.824.824,0,0,0,1.558.535A13.95,13.95,0,0,0,23.78,4.576Zm0,0"/><path class="a" d="M299.664,145.4l-2.374,2.559a3.989,3.989,0,0,1,1.123,1.211l2.459-2.649a.824.824,0,1,0-1.208-1.121Zm0,0" transform="translate(-281.113 -136.771)"/><path class="a" d="M215.2,213.973a2.314,2.314,0,1,0,2.314,2.314A2.317,2.317,0,0,0,215.2,213.973Zm0,0" transform="translate(-201.307 -201.861)"/></g></svg>