<svg xmlns="http://www.w3.org/2000/svg" width="18.255" height="21.059" viewBox="0 0 18.255 21.059"><defs><style>.a{fill:#ff6a00;}</style></defs><g transform="translate(-34.079 0)"><g transform="translate(34.079 0)"><path class="a" d="M152.862,174.936v-.573a.308.308,0,1,0-.617,0v.573a.308.308,0,0,0,.617,0Z" transform="translate(-147.385 -166.896)"/><path class="a" d="M222.808,175.245a.308.308,0,0,0,.308-.308v-.573a.308.308,0,1,0-.617,0v.573A.308.308,0,0,0,222.808,175.245Z" transform="translate(-214.75 -166.896)"/><path class="a" d="M164.028,238.037a.308.308,0,1,0-.436-.436,1.206,1.206,0,0,1-1.7,0,.308.308,0,1,0-.436.436,1.824,1.824,0,0,0,2.576,0Z" transform="translate(-156.127 -227.741)"/><path class="a" d="M183.966,191.885h.459a.308.308,0,1,0,0-.617h-.15v-.506a.308.308,0,0,0-.617,0v.815A.308.308,0,0,0,183.966,191.885Z" transform="translate(-177.506 -182.62)"/><path class="a" d="M52.026,14.992a.308.308,0,0,0,.308-.308V12.23a.515.515,0,0,0-.514-.514h-1.4v-.035a.515.515,0,0,0-.514-.514h-.265a1.223,1.223,0,0,0-2.442,0h-.265a.515.515,0,0,0-.514.514v.035h-1.4a.515.515,0,0,0-.514.514v.445H43.46l-.84-.83a2.688,2.688,0,0,0,1.549-1.668h.2A1.413,1.413,0,0,0,45.78,8.766V8.355a1.408,1.408,0,0,0-.468-1.049v-.83a.869.869,0,0,0,0-1.726A4.314,4.314,0,0,0,42.022.639,1.047,1.047,0,0,0,41.057,0h-.729a1.047,1.047,0,0,0-.964.639,4.314,4.314,0,0,0-3.29,4.111.869.869,0,0,0,0,1.726v.83a1.408,1.408,0,0,0-.468,1.049v.411a1.413,1.413,0,0,0,1.412,1.412h.2a2.687,2.687,0,0,0,1.549,1.668l-.84.83H35.57a1.493,1.493,0,0,0-1.491,1.491v6.378a.515.515,0,0,0,.514.514h7.667a.308.308,0,1,0,0-.617H41V14.52l.018-.018,1.957,1.266a.432.432,0,0,0,.666-.363V13.292h.874v7.149H43.7a.308.308,0,0,0,0,.617h8.12a.515.515,0,0,0,.514-.514V16.123a.308.308,0,0,0-.617,0v4.319H45.132V12.333h.461v7.215a.432.432,0,0,0,.432.432h4.8a.432.432,0,0,0,.432-.432V12.333h.461v2.35A.308.308,0,0,0,52.026,14.992ZM45.163,8.766a.8.8,0,0,1-.795.795h-.081c0-.065.008-.13.008-.2V7.56h.073a.8.8,0,0,1,.795.795v.411ZM44.3,6.943V6.482h.4v.5a1.41,1.41,0,0,0-.327-.039H44.3ZM40,.764a.425.425,0,0,1,.324-.147h.729a.43.43,0,0,1,.427.487l-.316,2.39h-.952L39.9,1.1a.425.425,0,0,1,.1-.34Zm-2.988,8.8a.8.8,0,0,1-.795-.795V8.355a.8.8,0,0,1,.795-.795h.073v1.8c0,.066,0,.131.008.2ZM36.69,6.982v-.5h.4v.461h-.073A1.406,1.406,0,0,0,36.69,6.982Zm-.517-1.117a.252.252,0,0,1,0-.5h2.3a.308.308,0,0,0,0-.617H36.692A3.7,3.7,0,0,1,39.3,1.295l.336,2.547a.308.308,0,0,0,.306.268h1.493a.308.308,0,0,0,.306-.268l.336-2.547a3.7,3.7,0,0,1,2.612,3.449H39.916a.308.308,0,0,0,0,.617h5.3a.252.252,0,0,1,0,.5Zm1.534,3.5V6.482h5.972V9.364a2.06,2.06,0,0,1-2.057,2.057H39.764A2.06,2.06,0,0,1,37.707,9.364Zm.654,3.748.637-.63v.325a.735.735,0,0,0,.212.519l.715.727L38.36,15.065Zm2.024,7.329H34.7V14.167a.875.875,0,0,1,.874-.874h2.173v2.113a.432.432,0,0,0,.666.363L40.366,14.5l.018.018Zm.308-6.488L39.65,12.893a.122.122,0,0,1-.035-.086v-.773c.049,0,.1,0,.149,0h1.857c.05,0,.1,0,.149,0v.773a.122.122,0,0,1-.035.086h0Zm2.332,1.111L41.46,14.053l.715-.727a.735.735,0,0,0,.212-.519v-.325l.637.63Zm5.4-4.433a.607.607,0,0,1,.6.535h-1.2A.607.607,0,0,1,48.425,10.632Zm-1.383,1.152h2.766v.769H47.042Zm3.6,7.58H46.211v-7.03h.214v.323a.515.515,0,0,0,.514.514h2.972a.515.515,0,0,0,.514-.514v-.323h.214Z" transform="translate(-34.079 0)"/><path class="a" d="M336.808,340.06l-.289.289-.164-.164a.308.308,0,1,0-.436.436l.382.382a.309.309,0,0,0,.436,0l.507-.507a.308.308,0,0,0-.436-.436Z" transform="translate(-323.417 -325.986)"/><path class="a" d="M377.576,348.11h-1.6a.308.308,0,0,0,0,.617h1.6a.308.308,0,0,0,0-.617Z" transform="translate(-361.622 -333.792)"/><path class="a" d="M377.576,376.42h-1.6a.308.308,0,0,0,0,.617h1.6a.308.308,0,0,0,0-.617Z" transform="translate(-361.622 -360.938)"/><path class="a" d="M336.826,376.42h-.69a.308.308,0,0,0,0,.617h.69a.308.308,0,1,0,0-.617Z" transform="translate(-323.417 -360.938)"/><path class="a" d="M336.826,404.73h-.69a.308.308,0,0,0,0,.617h.69a.308.308,0,1,0,0-.617Z" transform="translate(-323.417 -388.083)"/><path class="a" d="M336.826,433.04h-.69a.308.308,0,1,0,0,.617h.69a.308.308,0,1,0,0-.617Z" transform="translate(-323.417 -415.229)"/><path class="a" d="M377.576,404.73h-1.6a.308.308,0,0,0,0,.617h1.6a.308.308,0,0,0,0-.617Z" transform="translate(-361.622 -388.083)"/><path class="a" d="M377.576,433.04h-1.6a.308.308,0,1,0,0,.617h1.6a.308.308,0,1,0,0-.617Z" transform="translate(-361.622 -415.229)"/></g></g></svg>