<svg xmlns="http://www.w3.org/2000/svg" width="21.352" height="21.4" viewBox="0 0 21.352 21.4"><defs><style>.a{fill:#b0cad1;}</style></defs><path class="a" d="M43.432,401.23A10.7,10.7,0,0,0,36.9,420.378a.967.967,0,0,0,.276.208,10.6,10.6,0,0,0,12.519,0,.967.967,0,0,0,.276-.208,10.7,10.7,0,0,0-6.535-19.148Zm0,19.46a8.643,8.643,0,0,1-4.828-1.469,4.847,4.847,0,0,1,9.656,0A8.642,8.642,0,0,1,43.432,420.69ZM40.52,409.958a2.912,2.912,0,1,1,2.912,2.909A2.914,2.914,0,0,1,40.52,409.958Zm9.42,7.8a6.871,6.871,0,0,0-3.364-4.108,4.853,4.853,0,1,0-6.288,0,6.871,6.871,0,0,0-3.364,4.108,8.735,8.735,0,1,1,13.017,0Z" transform="translate(-32.756 -401.23)"/></svg>