<svg xmlns="http://www.w3.org/2000/svg" width="25.869" height="30.997" viewBox="0 0 25.869 30.997"><defs><style>.a{fill:#ff6a00;}</style></defs><g transform="translate(0.004 -0.003)"><path class="a" d="M23911.182,12164a5.515,5.515,0,0,1-3.939-1.436,5.15,5.15,0,0,1-1.533-3.9c0-.619.025-1.237.066-1.826a18.673,18.673,0,0,1,.252-1.964,15.967,15.967,0,0,1,.48-1.964,9.722,9.722,0,0,1,.807-1.838,6.861,6.861,0,0,1,1.225-1.592,5.311,5.311,0,0,1,1.754-1.1,6.121,6.121,0,0,1,2.234-.4,2.25,2.25,0,0,1,1.213.511c.373.24.8.517,1.268.817a7.215,7.215,0,0,0,1.633.721,6.349,6.349,0,0,0,4.006,0,7.2,7.2,0,0,0,1.635-.721c.475-.3.9-.577,1.266-.817a2.264,2.264,0,0,1,1.209-.511,6.16,6.16,0,0,1,2.24.4,5.331,5.331,0,0,1,1.754,1.1,6.79,6.79,0,0,1,1.219,1.592,9.252,9.252,0,0,1,.811,1.832,14.388,14.388,0,0,1,.48,1.97,18.26,18.26,0,0,1,.252,1.958c.043.595.066,1.207.066,1.832a5.155,5.155,0,0,1-1.531,3.9,5.53,5.53,0,0,1-3.941,1.436Zm-.223-13.928a3.552,3.552,0,0,0-1.164.721,5.07,5.07,0,0,0-.9,1.177,7.874,7.874,0,0,0-.66,1.5,14.017,14.017,0,0,0-.426,1.735c-.109.631-.187,1.226-.229,1.76-.037.553-.055,1.129-.055,1.706a3.373,3.373,0,0,0,.967,2.582,3.723,3.723,0,0,0,2.686.938h14.924a3.741,3.741,0,0,0,2.691-.937,3.37,3.37,0,0,0,.961-2.582c0-.583-.018-1.153-.055-1.7v-.006a17.664,17.664,0,0,0-.227-1.76,13.345,13.345,0,0,0-.428-1.735,7.874,7.874,0,0,0-.66-1.5,4.908,4.908,0,0,0-.895-1.177,3.582,3.582,0,0,0-1.166-.721,4.032,4.032,0,0,0-1.43-.276,3.091,3.091,0,0,0-.359.216c-.379.24-.793.511-1.279.823a9.321,9.321,0,0,1-2.055.919,8.241,8.241,0,0,1-5.123,0,9.057,9.057,0,0,1-2.055-.919c-.473-.3-.9-.583-1.279-.823a2.93,2.93,0,0,0-.359-.216A4.075,4.075,0,0,0,23910.959,12150.072Zm2.211-4.324a7.469,7.469,0,1,1,5.279,2.186A7.229,7.229,0,0,1,23913.17,12145.748Zm1.285-9.273a5.639,5.639,0,1,0,3.994-1.658A5.4,5.4,0,0,0,23914.455,12136.475Z" transform="translate(-23905.713 -12133)"/></g></svg>