<svg xmlns="http://www.w3.org/2000/svg" width="21.44" height="21.44" viewBox="0 0 21.44 21.44"><defs><style>.a{fill:#ff6a00;}</style></defs><g transform="translate(-16 -16)"><path class="a" d="M16.953,34.143A1.432,1.432,0,0,1,16,32.8V19.216h.715V32.8a.716.716,0,0,0,.476.674ZM27.435,16H17.429A1.431,1.431,0,0,0,16,17.429V18.5h.715V17.429a.716.716,0,0,1,.715-.715H27.435a.716.716,0,0,1,.674.476l.674-.238A1.432,1.432,0,0,0,27.435,16Zm2.5,5.717v-2.5a.716.716,0,0,0-.715-.715h-7.5v1.787a1.431,1.431,0,0,1-1.429,1.429H18.5V34.582a.716.716,0,0,0,.715.715h5.717v.715H19.216a1.431,1.431,0,0,1-1.429-1.429V21.36a.357.357,0,0,1,.1-.253l3.216-3.216a.357.357,0,0,1,.253-.1h7.861a1.431,1.431,0,0,1,1.429,1.429v2.5ZM21,19.007l-2,2h1.281A.716.716,0,0,0,21,20.288Zm1.429,4.14v1.072h4.645v.715H22.432v1.072h3.216v.715H22.432v1.072h3.216v.715H22.432v1.072h3.216v.715H22.432v1.072h3.216v.715H22.432v1.072h1.787v.715H20.645A1.073,1.073,0,0,1,19.573,32.8V23.5a1.073,1.073,0,0,1,1.072-1.072h7.147v.715Zm-.715,8.934H20.288V32.8a.358.358,0,0,0,.357.357h1.072Zm0-1.787H20.288v1.072h1.429Zm0-1.787H20.288v1.072h1.429Zm0-1.787H20.288v1.072h1.429Zm0-1.787H20.288v1.072h1.429Zm0-1.787H20.645a.358.358,0,0,0-.357.357v.715h1.429ZM22.432,21v.715h3.216V21Zm6.432-1.429H22.432v.715h6.432Zm2.593,7.861h-.092v-.357h-.715v.357h-.092a.98.98,0,0,0-.31,1.91l1.292.431a.266.266,0,0,1-.084.518h-.9a.266.266,0,0,1-.266-.266v-.092h-.715v.092a.981.981,0,0,0,.98.98h.092v.357h.715v-.357h.092a.98.98,0,0,0,.31-1.91l-1.292-.431a.266.266,0,0,1,.084-.518h.9a.266.266,0,0,1,.266.266v.092h.715v-.092A.981.981,0,0,0,31.457,27.435ZM28.032,26.9l.618.358a1.082,1.082,0,0,1,.393-.393l-.358-.618A1.8,1.8,0,0,0,28.032,26.9Zm-.24,2.681h.715V27.792h-.715ZM36.037,26.5l.663-.267a4.35,4.35,0,0,0-1.951-2.257l-.334.632A3.636,3.636,0,0,1,36.037,26.5Zm1.4,6.656v3.931a.357.357,0,0,1-.357.357H33.867v-.715H35.3V33.344l-.3-.2a2.163,2.163,0,0,0-2.665.261.357.357,0,0,1-.253.1H29.043a.544.544,0,0,0-.536.536.527.527,0,0,0,.046.216.546.546,0,0,0,.49.32h2.68V35.3h-2.68a1.125,1.125,0,0,1-.37-.056,1.243,1.243,0,0,1-.733-.607l-1.181-.984a.756.756,0,0,0-.661-.125.61.61,0,0,0-.216,1.064l2.555,1.987a.716.716,0,0,0,.438.15h4.278v.715H28.875a1.434,1.434,0,0,1-.877-.3l-2.555-1.987a1.314,1.314,0,0,1-.509-1.045v-.016a1.291,1.291,0,0,1,.768-1.184,1.612,1.612,0,0,1,.421-.735.821.821,0,0,0,.24-.579v-3.8a3.221,3.221,0,0,1,2.732-3.18l-.57-1.71a.357.357,0,0,1,.339-.47h4.288a.357.357,0,0,1,.339.47l-.57,1.71a3.216,3.216,0,0,1,2.732,3.18v3.8a.825.825,0,0,0,.24.579,1.614,1.614,0,0,1,.351.525c.013.032.025.064.037.1h.8A.357.357,0,0,1,37.44,33.152ZM29.36,23.147l.476,1.429H32.18l.476-1.429Zm5.824,9.276a1.545,1.545,0,0,1-.245-.83v-3.8a2.5,2.5,0,0,0-2.5-2.5H29.579a2.5,2.5,0,0,0-2.5,2.5v3.8a1.537,1.537,0,0,1-.449,1.085.9.9,0,0,0-.1.126,1.29,1.29,0,0,1,.13.022h.007a1.316,1.316,0,0,1,.556.273l.645.538a1.249,1.249,0,0,1,1.181-.843h2.9a2.819,2.819,0,0,1,1.868-.715h.037A2.787,2.787,0,0,1,35.184,32.423Zm1.541,1.087h-.715v3.216h.715Z"/></g></svg>