<svg xmlns="http://www.w3.org/2000/svg" width="35.267" height="35.267" viewBox="0 0 35.267 35.267"><defs><style>.a{fill:#2196f3;}.b{fill:#fafafa;}</style></defs><g transform="translate(0 0)"><path class="a" d="M32.424,13.443l.483-4.627L28.656,6.924a.614.614,0,0,1-.312-.311L26.453,2.361l-4.628.484a.618.618,0,0,1-.423-.114L17.634,0l-3.768,2.73a.619.619,0,0,1-.423.114L8.815,2.361,6.924,6.612a.609.609,0,0,1-.311.311L2.361,8.815l.483,4.627a.615.615,0,0,1-.113.424L0,17.634,2.731,21.4a.615.615,0,0,1,.113.424l-.483,4.627,4.251,1.892a.614.614,0,0,1,.311.312l1.891,4.251,4.629-.484c.021,0,.042,0,.061,0a.609.609,0,0,1,.359.117l3.77,2.73,3.768-2.73a.612.612,0,0,1,.423-.114l4.628.484,1.891-4.251a.611.611,0,0,1,.312-.311l4.251-1.892-.483-4.627a.612.612,0,0,1,.113-.424l2.73-3.768-2.73-3.768a.612.612,0,0,1-.113-.424Z"/><path class="b" d="M158.164,167.837l-9.552,9.551a1.468,1.468,0,0,1-2.078,0l-4.776-4.776a1.469,1.469,0,1,1,2.078-2.078l3.737,3.737,8.513-8.513a1.469,1.469,0,1,1,2.078,2.078Zm0,0" transform="translate(-132.328 -153.94)"/></g></svg>