<svg xmlns="http://www.w3.org/2000/svg" width="32.903" height="32" viewBox="0 0 32.903 32">
  <g id="warehouse" transform="translate(0 -7.027)">
    <path id="Path_38802" data-name="Path 38802" d="M31.935,35.67h-.492v-25.3a.969.969,0,0,0,.818-.955V7.995a.969.969,0,0,0-.968-.968H7.937a.482.482,0,0,0,0,.964l23.36,0,0,1.425-29.686,0,0-1.425h4.4a.482.482,0,0,0,0-.964h-4.4a.969.969,0,0,0-.968.968V9.416a.969.969,0,0,0,.818.955v25.3H.968A.969.969,0,0,0,0,36.638v1.778a.612.612,0,0,0,.611.611H32.292a.612.612,0,0,0,.611-.611V36.638A.969.969,0,0,0,31.935,35.67ZM2.424,10.384H30.479V35.67H29V13.922a1.448,1.448,0,0,0-1.446-1.446H5.35A1.448,1.448,0,0,0,3.9,13.922v10.7a.482.482,0,1,0,.964,0V18.159H28.035V35.67h-2.9V29.713a1.448,1.448,0,0,0-1.446-1.446H21.033v-5.96a1.448,1.448,0,0,0-1.446-1.446H13.316a1.448,1.448,0,0,0-1.446,1.446v5.957H9.216A1.448,1.448,0,0,0,7.77,29.71v5.96h-2.9V26.548a.482.482,0,0,0-.964,0V35.67H2.424ZM4.868,15.8H11.8a.482.482,0,1,0,0-.964H4.868v-.913a.483.483,0,0,1,.482-.482h22.2a.483.483,0,0,1,.482.482v.913H23.86a.482.482,0,1,0,0,.964h4.175v1.4H4.868ZM17.3,21.825v.813a.482.482,0,0,1-.482.482h-.729a.482.482,0,0,1-.482-.482v-.813Zm-1.21,2.259h.729a1.448,1.448,0,0,0,1.446-1.446v-.813h1.325a.483.483,0,0,1,.482.482v5.957H12.834V22.307a.483.483,0,0,1,.482-.482h1.325v.813a1.448,1.448,0,0,0,1.446,1.446Zm7.6,5.147a.482.482,0,0,1,.482.482V35.67H16.934V29.231h1.9v.813a1.448,1.448,0,0,0,1.446,1.446h.729a1.448,1.448,0,0,0,1.446-1.446v-.813Zm-2.2.813a.482.482,0,0,1-.482.482h-.729a.482.482,0,0,1-.482-.482v-.813h1.693Zm-9.136-.816h1.2v.816a.482.482,0,0,1-.482.482h-.729a.482.482,0,0,1-.482-.482v-.816Zm-.007,2.262h.728a1.448,1.448,0,0,0,1.446-1.446v-.816h1.449v6.439H8.734V29.71a.483.483,0,0,1,.482-.482H10.9v.816a1.448,1.448,0,0,0,1.446,1.446Zm19.594,6.574H.965l0-1.429,30.972,0Z" fill="#ff6a00"/>
    <path id="Path_38803" data-name="Path 38803" d="M219.608,128.533h-7.354a.482.482,0,1,0,0,.964h7.354a.482.482,0,1,0,0-.964Z" transform="translate(-198.163 -113.697)" fill="#ff6a00"/>
  </g>
</svg>
