<svg xmlns="http://www.w3.org/2000/svg" width="35" height="35" viewBox="0 0 35 35"><defs><style>.a{fill:#12c279;}.b{fill:#fff;}</style></defs><g transform="translate(-823 -350)"><circle class="a" cx="17.5" cy="17.5" r="17.5" transform="translate(823 350)"/><path class="b" d="M13.012,10.695c-.224-.112-1.314-.645-1.517-.718s-.352-.112-.5.112-.573.717-.7.864-.26.156-.48.056A6.035,6.035,0,0,1,8.025,9.9,6.747,6.747,0,0,1,6.791,8.364c-.129-.223-.014-.346.1-.457s.224-.257.335-.389a1.885,1.885,0,0,0,.221-.369.409.409,0,0,0-.019-.39c-.056-.112-.5-1.2-.686-1.64s-.362-.379-.5-.379-.276-.011-.425-.011A.838.838,0,0,0,5.222,5a2.483,2.483,0,0,0-.777,1.84,4.351,4.351,0,0,0,.906,2.287,9.916,9.916,0,0,0,3.792,3.335c.531.223.944.357,1.267.468a3.077,3.077,0,0,0,1.4.09,2.288,2.288,0,0,0,1.5-1.06,1.841,1.841,0,0,0,.134-1.06c-.055-.1-.2-.156-.424-.257m-4.05,5.535H8.957A7.439,7.439,0,0,1,5.2,15.148l-.268-.159-2.789.725L2.889,13l-.178-.279A7.375,7.375,0,0,1,14.2,3.626a7.279,7.279,0,0,1,2.163,5.2,7.384,7.384,0,0,1-7.388,7.351m6.286-13.61A9.029,9.029,0,0,0,8.957,0a8.841,8.841,0,0,0-7.7,13.265L0,17.847l4.711-1.228a8.97,8.97,0,0,0,4.246,1.076h0a8.879,8.879,0,0,0,8.886-8.846,8.77,8.77,0,0,0-2.6-6.255" transform="translate(831.562 358.602)"/></g></svg>