<svg xmlns="http://www.w3.org/2000/svg" width="58.085" height="58.254" viewBox="0 0 58.085 58.254"><defs><style>.a{fill:#ff6a00;}</style></defs><g transform="translate(-0.746)"><path class="a" d="M58.831,14.763A14.763,14.763,0,0,0,29.447,12.72c-3.492-.121-7.024-.121-10.514,0a.853.853,0,1,0,.061,1.706c3.423-.123,6.888-.124,10.315-.007,0,.113,0,.226,0,.34a14.869,14.869,0,0,0,.09,1.623c-1.706-.059-3.425-.091-5.124-.091-1.989,0-4.006.041-6,.122A3.1,3.1,0,0,0,15.3,19.31c-.049.746-.068,1.5-.059,2.25q-.957.073-1.951.159h-.005c-.014-.848.006-1.7.06-2.537a5.017,5.017,0,0,1,2.7-4.15.853.853,0,0,0-.789-1.513,6.712,6.712,0,0,0-3.618,5.552c-.06.927-.08,1.866-.061,2.8-1.591.151-2.918.294-3.837.4a5.449,5.449,0,0,0-4.53,3.65A58.973,58.973,0,0,0,.8,36.208,4.977,4.977,0,0,0,1.981,40.23,90.759,90.759,0,0,0,2.5,52.391,6.038,6.038,0,0,0,8.149,57.77c5.349.323,10.735.485,16.122.485s10.774-.162,16.122-.485A6.051,6.051,0,0,0,45.508,54.3a.853.853,0,1,0-1.545-.726,4.345,4.345,0,0,1-3.674,2.488,266.531,266.531,0,0,1-32.038,0A4.335,4.335,0,0,1,4.192,52.2a89.234,89.234,0,0,1-.528-10.73c.091.041.183.081.277.117,1.417.545,2.887,1.072,4.369,1.564a90.991,90.991,0,0,0,8.937,2.494c.647.143,1.3.267,1.96.371v1.757A3.03,3.03,0,0,0,22.233,50.8h4.075a3.03,3.03,0,0,0,3.026-3.026V46.02c.678-.107,1.358-.235,2.028-.384A96.086,96.086,0,0,0,44.6,41.592c.093-.036.185-.075.275-.116a89.015,89.015,0,0,1-.357,9.047.853.853,0,0,0,.773.927q.039,0,.078,0a.854.854,0,0,0,.849-.776,90.6,90.6,0,0,0,.341-10.446,4.978,4.978,0,0,0,1.183-4.024,62.481,62.481,0,0,0-1.388-6.86A14.786,14.786,0,0,0,58.831,14.763ZM17,19.422a1.4,1.4,0,0,1,1.344-1.3C20.311,18.042,22.3,18,24.27,18c1.8,0,3.618.036,5.416.1a14.649,14.649,0,0,0,1.194,3.29c-2.442-.148-4.66-.223-6.61-.223-2.156,0-4.611.09-7.326.269C16.938,20.766,16.956,20.09,17,19.422ZM27.627,47.779A1.321,1.321,0,0,1,26.308,49.1H22.233a1.321,1.321,0,0,1-1.319-1.319V42.065a1.321,1.321,0,0,1,1.319-1.319h4.075a1.321,1.321,0,0,1,1.319,1.319ZM46.052,36.455A3.269,3.269,0,0,1,43.987,40a94.34,94.34,0,0,1-13,3.97c-.548.122-1.1.228-1.656.32V42.065a3.03,3.03,0,0,0-3.026-3.026H22.233a3.03,3.03,0,0,0-3.026,3.026v2.226c-.533-.089-1.065-.19-1.59-.307a89.285,89.285,0,0,1-8.769-2.447c-1.457-.485-2.9-1-4.294-1.538a3.27,3.27,0,0,1-2.066-3.545,57.245,57.245,0,0,1,2.34-9.984,3.736,3.736,0,0,1,3.106-2.5c1.221-.139,3.167-.347,5.5-.549,4.153-.36,7.8-.542,10.836-.542,2.22,0,4.8.1,7.671.3a14.757,14.757,0,0,0,12.126,6.354c.188,0,.375,0,.562-.012a60.547,60.547,0,0,1,1.423,6.941Zm5.266-10.84-.438-.758a.853.853,0,1,0-1.478.853l.439.76a12.961,12.961,0,0,1-4.921,1.32V25.73a.853.853,0,1,0-1.707,0v2.06a12.957,12.957,0,0,1-4.921-1.32l.439-.76a.853.853,0,0,0-1.478-.853l-.438.758a13.163,13.163,0,0,1-3.6-3.6l.758-.438A.853.853,0,0,0,33.12,20.1l-.76.439a12.961,12.961,0,0,1-1.32-4.921H33.1a.853.853,0,0,0,0-1.707H31.04a12.956,12.956,0,0,1,1.32-4.921l.76.439a.853.853,0,0,0,.853-1.478l-.758-.438a13.163,13.163,0,0,1,3.6-3.6l.438.758a.853.853,0,1,0,1.478-.853l-.439-.76a12.961,12.961,0,0,1,4.921-1.32V3.8a.853.853,0,0,0,1.707,0V1.735a12.957,12.957,0,0,1,4.921,1.32l-.439.76a.853.853,0,1,0,1.478.853l.438-.758a13.163,13.163,0,0,1,3.6,3.6l-.758.438a.853.853,0,1,0,.853,1.478l.76-.439A12.961,12.961,0,0,1,57.1,13.91h-2.06a.853.853,0,1,0,0,1.707H57.1a12.958,12.958,0,0,1-1.32,4.921l-.76-.439a.853.853,0,0,0-.853,1.478l.758.438a13.165,13.165,0,0,1-3.6,3.6Z"/><path class="a" d="M310.7,66.906a2.628,2.628,0,0,0-2.625,2.625v1.9h-3.838a2.625,2.625,0,0,0,0,5.251H310.7a2.628,2.628,0,0,0,2.625-2.625V69.531A2.628,2.628,0,0,0,310.7,66.906Zm-7.381,7.15a.92.92,0,0,1,.919-.919h3.838v.919a2.61,2.61,0,0,0,.166.919h-4A.92.92,0,0,1,303.316,74.056Zm8.3,0a.919.919,0,1,1-1.837,0V69.531a.919.919,0,1,1,1.837,0Z" transform="translate(-266.63 -59.293)"/></g></svg>